<?xml version="1.0" encoding="UTF-8" standalone="no"?>
<!DOCTYPE svg PUBLIC "-//W3C//DTD SVG 1.1//EN"
 "http://www.w3.org/Graphics/SVG/1.1/DTD/svg11.dtd">
<!-- Generated by graphviz version 14.1.3 (20260303.0454)
 -->
<!-- Title: TraversalExample Pages: 1 -->
<svg width="152pt" height="188pt"
 viewBox="0.00 0.00 152.00 188.00" xmlns="http://www.w3.org/2000/svg" xmlns:xlink="http://www.w3.org/1999/xlink">
<g id="graph0" class="graph" transform="scale(1 1) rotate(0) translate(4 184)">
<title>TraversalExample</title>
<polygon fill="white" stroke="none" points="-4,4 -4,-184 148,-184 148,4 -4,4"/>
<!-- 1 -->
<g id="node1" class="node">
<title>1</title>
<ellipse fill="none" stroke="black" cx="18" cy="-90" rx="18" ry="18"/>
<text xml:space="preserve" text-anchor="middle" x="18" y="-85.33" font-family="Times,serif" font-size="14.00">1</text>
</g>
<!-- 3 -->
<g id="node2" class="node">
<title>3</title>
<ellipse fill="none" stroke="black" cx="18" cy="-18" rx="18" ry="18"/>
<text xml:space="preserve" text-anchor="middle" x="18" y="-13.32" font-family="Times,serif" font-size="14.00">3</text>
</g>
<!-- 1&#45;&#45;3 -->
<g id="edge1" class="edge">
<title>1&#45;&#45;3</title>
<path fill="none" stroke="black" d="M18,-71.7C18,-60.85 18,-46.92 18,-36.1"/>
</g>
<!-- 0 -->
<g id="node3" class="node">
<title>0</title>
<ellipse fill="none" stroke="black" cx="72" cy="-162" rx="18" ry="18"/>
<text xml:space="preserve" text-anchor="middle" x="72" y="-157.32" font-family="Times,serif" font-size="14.00">0</text>
</g>
<!-- 0&#45;&#45;1 -->
<g id="edge2" class="edge">
<title>0&#45;&#45;1</title>
<path fill="none" stroke="black" d="M61.33,-147.17C51.86,-134.9 38.11,-117.06 28.65,-104.8"/>
</g>
<!-- 4 -->
<g id="node4" class="node">
<title>4</title>
<ellipse fill="none" stroke="black" cx="72" cy="-90" rx="18" ry="18"/>
<text xml:space="preserve" text-anchor="middle" x="72" y="-85.33" font-family="Times,serif" font-size="14.00">4</text>
</g>
<!-- 0&#45;&#45;4 -->
<g id="edge3" class="edge">
<title>0&#45;&#45;4</title>
<path fill="none" stroke="black" d="M72,-143.7C72,-132.85 72,-118.92 72,-108.1"/>
</g>
<!-- 2 -->
<g id="node5" class="node">
<title>2</title>
<ellipse fill="none" stroke="black" cx="126" cy="-90" rx="18" ry="18"/>
<text xml:space="preserve" text-anchor="middle" x="126" y="-85.33" font-family="Times,serif" font-size="14.00">2</text>
</g>
<!-- 0&#45;&#45;2 -->
<g id="edge4" class="edge">
<title>0&#45;&#45;2</title>
<path fill="none" stroke="black" d="M82.67,-147.17C92.14,-134.9 105.89,-117.06 115.35,-104.8"/>
</g>
</g>
</svg>
