<?xml version="1.0" encoding="UTF-8" standalone="no"?>
<!DOCTYPE svg PUBLIC "-//W3C//DTD SVG 1.1//EN"
 "http://www.w3.org/Graphics/SVG/1.1/DTD/svg11.dtd">
<!-- Generated by graphviz version 14.1.3 (20260303.0454)
 -->
<!-- Title: RecursiveFramework Pages: 1 -->
<svg width="694pt" height="79pt"
 viewBox="0.00 0.00 694.00 79.00" xmlns="http://www.w3.org/2000/svg" xmlns:xlink="http://www.w3.org/1999/xlink">
<g id="graph0" class="graph" transform="scale(1 1) rotate(0) translate(4 75)">
<title>RecursiveFramework</title>
<polygon fill="white" stroke="none" points="-4,4 -4,-75 690,-75 690,4 -4,4"/>
<!-- top_down -->
<g id="node1" class="node">
<title>top_down</title>
<polygon fill="none" stroke="black" points="258.25,-71 0,-71 0,0 258.25,0 258.25,-71"/>
<text xml:space="preserve" text-anchor="middle" x="129.12" y="-53.7" font-family="Times,serif" font-size="14.00">模式 A：自顶向下</text>
<text xml:space="preserve" text-anchor="middle" x="129.12" y="-32.7" font-family="Times,serif" font-size="14.00">父节点向子节点传递路径、约束或层数</text>
<text xml:space="preserve" text-anchor="middle" x="129.12" y="-11.7" font-family="Times,serif" font-size="14.00">处理时机：递归子树之前</text>
</g>
<!-- bottom_up -->
<g id="node2" class="node">
<title>bottom_up</title>
<polygon fill="none" stroke="black" points="686,-71 408.25,-71 408.25,0 686,0 686,-71"/>
<text xml:space="preserve" text-anchor="middle" x="547.12" y="-53.7" font-family="Times,serif" font-size="14.00">模式 B：自底向上</text>
<text xml:space="preserve" text-anchor="middle" x="547.12" y="-32.7" font-family="Times,serif" font-size="14.00">子树向父节点汇报高度、LCA 或最大贡献</text>
<text xml:space="preserve" text-anchor="middle" x="547.12" y="-11.7" font-family="Times,serif" font-size="14.00">处理时机：递归子树返回之后</text>
</g>
<!-- top_down&#45;&gt;bottom_up -->
<g id="edge1" class="edge">
<title>top_down&#45;&gt;bottom_up</title>
<path fill="none" stroke="black" stroke-dasharray="5,2" d="M258.62,-35.5C302.29,-35.5 351.48,-35.5 396.65,-35.5"/>
<polygon fill="black" stroke="black" points="396.53,-39 406.53,-35.5 396.53,-32 396.53,-39"/>
<text xml:space="preserve" text-anchor="middle" x="333.25" y="-43.2" font-family="Times,serif" font-size="14.00">两种递归状态传递</text>
</g>
</g>
</svg>
