<?xml version="1.0" encoding="UTF-8" standalone="no"?>
<!DOCTYPE svg PUBLIC "-//W3C//DTD SVG 1.1//EN"
 "http://www.w3.org/Graphics/SVG/1.1/DTD/svg11.dtd">
<!-- Generated by graphviz version 14.1.3 (20260303.0454)
 -->
<!-- Title: BTreeBorrow Pages: 1 -->
<svg width="558pt" height="212pt"
 viewBox="0.00 0.00 558.00 212.00" xmlns="http://www.w3.org/2000/svg" xmlns:xlink="http://www.w3.org/1999/xlink">
<g id="graph0" class="graph" transform="scale(1 1) rotate(0) translate(4 208)">
<title>BTreeBorrow</title>
<polygon fill="white" stroke="none" points="-4,4 -4,-208 554,-208 554,4 -4,4"/>
<g id="clust1" class="cluster">
<title>cluster_before</title>
<polygon fill="none" stroke="#888888" stroke-dasharray="5,2" points="8,-8 8,-196 236,-196 236,-8 8,-8"/>
<text xml:space="preserve" text-anchor="middle" x="122" y="-178.7" font-family="Times,serif" font-size="14.00">借位前：右孩子只有 t&#45;1 个关键字</text>
</g>
<g id="clust2" class="cluster">
<title>cluster_after</title>
<polygon fill="none" stroke="#888888" stroke-dasharray="5,2" points="244,-8 244,-196 542,-196 542,-8 244,-8"/>
<text xml:space="preserve" text-anchor="middle" x="393" y="-178.7" font-family="Times,serif" font-size="14.00">借位后：父键 20 下移，兄弟最大键 10 上移</text>
</g>
<!-- p1 -->
<g id="node1" class="node">
<title>p1</title>
<polygon fill="none" stroke="black" points="86,-116.5 86,-152.5 140,-152.5 140,-116.5 86,-116.5"/>
<text xml:space="preserve" text-anchor="middle" x="113" y="-129.82" font-family="Times,serif" font-size="14.00">20</text>
</g>
<!-- l1 -->
<g id="node2" class="node">
<title>l1</title>
<polygon fill="none" stroke="black" points="56.5,-22.5 56.5,-58.5 115.5,-58.5 115.5,-22.5 56.5,-22.5"/>
<text xml:space="preserve" text-anchor="middle" x="69" y="-35.83" font-family="Times,serif" font-size="14.00">5</text>
<polyline fill="none" stroke="black" points="81.5,-22.5 81.5,-58.5"/>
<text xml:space="preserve" text-anchor="middle" x="98.5" y="-35.83" font-family="Times,serif" font-size="14.00">10</text>
</g>
<!-- p1&#45;&gt;l1 -->
<g id="edge1" class="edge">
<title>p1&#45;&gt;l1</title>
<path fill="none" stroke="black" d="M107.92,-116.2C104.07,-103.09 98.71,-84.81 94.25,-69.61"/>
<polygon fill="black" stroke="black" points="97.66,-68.79 91.48,-60.18 90.94,-70.76 97.66,-68.79"/>
<text xml:space="preserve" text-anchor="middle" x="109.04" y="-84.7" font-family="Times,serif" font-size="14.00">左</text>
</g>
<!-- r1 -->
<g id="node3" class="node">
<title>r1</title>
<polygon fill="none" stroke="black" points="134,-22.5 134,-58.5 188,-58.5 188,-22.5 134,-22.5"/>
<text xml:space="preserve" text-anchor="middle" x="161" y="-35.83" font-family="Times,serif" font-size="14.00">25</text>
</g>
<!-- p1&#45;&gt;r1 -->
<g id="edge2" class="edge">
<title>p1&#45;&gt;r1</title>
<path fill="none" stroke="black" d="M122.03,-116.2C129,-102.83 138.78,-84.09 146.8,-68.72"/>
<polygon fill="black" stroke="black" points="149.79,-70.55 151.31,-60.07 143.58,-67.32 149.79,-70.55"/>
<text xml:space="preserve" text-anchor="middle" x="148.42" y="-84.7" font-family="Times,serif" font-size="14.00">右</text>
</g>
<!-- p2 -->
<g id="node4" class="node">
<title>p2</title>
<polygon fill="none" stroke="black" points="276,-116.5 276,-152.5 330,-152.5 330,-116.5 276,-116.5"/>
<text xml:space="preserve" text-anchor="middle" x="303" y="-129.82" font-family="Times,serif" font-size="14.00">10</text>
</g>
<!-- l2 -->
<g id="node5" class="node">
<title>l2</title>
<polygon fill="none" stroke="black" points="267,-22.5 267,-58.5 321,-58.5 321,-22.5 267,-22.5"/>
<text xml:space="preserve" text-anchor="middle" x="294" y="-35.83" font-family="Times,serif" font-size="14.00">5</text>
</g>
<!-- p2&#45;&gt;l2 -->
<g id="edge3" class="edge">
<title>p2&#45;&gt;l2</title>
<path fill="none" stroke="black" d="M301.31,-116.2C300.04,-103.22 298.27,-85.16 296.79,-70.06"/>
<polygon fill="black" stroke="black" points="300.29,-69.84 295.83,-60.23 293.32,-70.53 300.29,-69.84"/>
<text xml:space="preserve" text-anchor="middle" x="306.43" y="-84.7" font-family="Times,serif" font-size="14.00">左</text>
</g>
<!-- r2 -->
<g id="node6" class="node">
<title>r2</title>
<polygon fill="none" stroke="black" points="339,-22.5 339,-58.5 407,-58.5 407,-22.5 339,-22.5"/>
<text xml:space="preserve" text-anchor="middle" x="356" y="-35.83" font-family="Times,serif" font-size="14.00">20</text>
<polyline fill="none" stroke="black" points="373,-22.5 373,-58.5"/>
<text xml:space="preserve" text-anchor="middle" x="390" y="-35.83" font-family="Times,serif" font-size="14.00">25</text>
</g>
<!-- p2&#45;&gt;r2 -->
<g id="edge4" class="edge">
<title>p2&#45;&gt;r2</title>
<path fill="none" stroke="black" d="M316.17,-116.2C326.53,-102.57 341.15,-83.36 352.96,-67.84"/>
<polygon fill="black" stroke="black" points="355.71,-70.01 358.98,-59.93 350.14,-65.77 355.71,-70.01"/>
<text xml:space="preserve" text-anchor="middle" x="351.39" y="-84.7" font-family="Times,serif" font-size="14.00">右</text>
</g>
</g>
</svg>
