<?xml version="1.0" encoding="UTF-8" standalone="no"?>
<!DOCTYPE svg PUBLIC "-//W3C//DTD SVG 1.1//EN"
 "http://www.w3.org/Graphics/SVG/1.1/DTD/svg11.dtd">
<!-- Generated by graphviz version 14.1.3 (20260303.0454)
 -->
<!-- Title: ThreeStepRule Pages: 1 -->
<svg width="402pt" height="326pt"
 viewBox="0.00 0.00 402.00 326.00" xmlns="http://www.w3.org/2000/svg" xmlns:xlink="http://www.w3.org/1999/xlink">
<g id="graph0" class="graph" transform="scale(1 1) rotate(0) translate(4 321.71)">
<title>ThreeStepRule</title>
<polygon fill="white" stroke="none" points="-4,4 -4,-321.71 398,-321.71 398,4 -4,4"/>
<g id="clust1" class="cluster">
<title>cluster_add</title>
<polygon fill="none" stroke="black" points="8,-8 8,-309.71 118,-309.71 118,-8 8,-8"/>
<text xml:space="preserve" text-anchor="middle" x="63" y="-292.41" font-family="Times,serif" font-size="14.00">步骤 1：加线</text>
</g>
<g id="clust3" class="cluster">
<title>cluster_keep</title>
<polygon fill="none" stroke="black" points="126,-8 126,-309.71 236,-309.71 236,-8 126,-8"/>
<text xml:space="preserve" text-anchor="middle" x="181" y="-292.41" font-family="Times,serif" font-size="14.00">步骤 2：抹线</text>
</g>
<g id="clust4" class="cluster">
<title>cluster_rotate</title>
<polygon fill="none" stroke="black" points="244,-8 244,-309.71 386,-309.71 386,-8 244,-8"/>
<text xml:space="preserve" text-anchor="middle" x="315" y="-292.41" font-family="Times,serif" font-size="14.00">步骤 3：旋转 45 度</text>
</g>
<!-- A_add -->
<g id="node1" class="node">
<title>A_add</title>
<ellipse fill="none" stroke="black" cx="73" cy="-254.65" rx="18.06" ry="18.06"/>
<text xml:space="preserve" text-anchor="middle" x="73" y="-249.98" font-family="Times,serif" font-size="14.00">A</text>
</g>
<!-- B_add -->
<g id="node2" class="node">
<title>B_add</title>
<ellipse fill="none" stroke="black" cx="35" cy="-182" rx="18.59" ry="18.59"/>
<text xml:space="preserve" text-anchor="middle" x="35" y="-177.32" font-family="Times,serif" font-size="14.00">B</text>
</g>
<!-- A_add&#45;&gt;B_add -->
<g id="edge1" class="edge">
<title>A_add&#45;&gt;B_add</title>
<path fill="none" stroke="black" d="M64.75,-238.32C60.09,-229.65 54.13,-218.57 48.78,-208.61"/>
<polygon fill="black" stroke="black" points="52.03,-207.27 44.21,-200.12 45.86,-210.59 52.03,-207.27"/>
</g>
<!-- C_add -->
<g id="node3" class="node">
<title>C_add</title>
<ellipse fill="none" stroke="black" cx="45" cy="-108.82" rx="18.59" ry="18.59"/>
<text xml:space="preserve" text-anchor="middle" x="45" y="-104.14" font-family="Times,serif" font-size="14.00">C</text>
</g>
<!-- A_add&#45;&gt;C_add -->
<g id="edge2" class="edge">
<title>A_add&#45;&gt;C_add</title>
<path fill="none" stroke="black" d="M72.17,-236.17C71.05,-217.86 68.5,-188.34 63,-163.41 61.08,-154.71 58.26,-145.45 55.42,-137.11"/>
<polygon fill="black" stroke="black" points="58.78,-136.12 52.12,-127.88 52.19,-138.47 58.78,-136.12"/>
</g>
<!-- D_add -->
<g id="node4" class="node">
<title>D_add</title>
<ellipse fill="none" stroke="black" cx="91" cy="-35.12" rx="19.12" ry="19.12"/>
<text xml:space="preserve" text-anchor="middle" x="91" y="-30.44" font-family="Times,serif" font-size="14.00">D</text>
</g>
<!-- A_add&#45;&gt;D_add -->
<g id="edge3" class="edge">
<title>A_add&#45;&gt;D_add</title>
<path fill="none" stroke="black" d="M74.44,-236.22C77.51,-199.1 84.73,-111.92 88.54,-65.85"/>
<polygon fill="black" stroke="black" points="92.01,-66.31 89.35,-56.06 85.04,-65.74 92.01,-66.31"/>
</g>
<!-- B_add&#45;&gt;C_add -->
<g id="edge4" class="edge">
<title>B_add&#45;&gt;C_add</title>
<path fill="none" stroke="black" stroke-dasharray="5,2" d="M37.47,-163.4C38.51,-156.02 39.74,-147.23 40.91,-138.92"/>
<polygon fill="black" stroke="black" points="44.35,-139.6 42.28,-129.21 37.42,-138.62 44.35,-139.6"/>
</g>
<!-- C_add&#45;&gt;D_add -->
<g id="edge5" class="edge">
<title>C_add&#45;&gt;D_add</title>
<path fill="none" stroke="black" stroke-dasharray="5,2" d="M54.76,-92.61C60.59,-83.52 68.15,-71.73 74.86,-61.28"/>
<polygon fill="black" stroke="black" points="77.67,-63.38 80.12,-53.07 71.78,-59.6 77.67,-63.38"/>
</g>
<!-- E_add -->
<g id="node5" class="node">
<title>E_add</title>
<ellipse fill="none" stroke="black" cx="35" cy="-35.12" rx="18.59" ry="18.59"/>
<text xml:space="preserve" text-anchor="middle" x="35" y="-30.44" font-family="Times,serif" font-size="14.00">E</text>
</g>
<!-- C_add&#45;&gt;E_add -->
<g id="edge6" class="edge">
<title>C_add&#45;&gt;E_add</title>
<path fill="none" stroke="black" d="M42.53,-90.1C41.46,-82.45 40.19,-73.32 39,-64.76"/>
<polygon fill="black" stroke="black" points="42.5,-64.56 37.65,-55.14 35.57,-65.52 42.5,-64.56"/>
</g>
<!-- A_keep -->
<g id="node6" class="node">
<title>A_keep</title>
<ellipse fill="none" stroke="black" cx="181" cy="-254.65" rx="18.06" ry="18.06"/>
<text xml:space="preserve" text-anchor="middle" x="181" y="-249.98" font-family="Times,serif" font-size="14.00">A</text>
</g>
<!-- B_keep -->
<g id="node7" class="node">
<title>B_keep</title>
<ellipse fill="none" stroke="black" cx="181" cy="-182" rx="18.59" ry="18.59"/>
<text xml:space="preserve" text-anchor="middle" x="181" y="-177.32" font-family="Times,serif" font-size="14.00">B</text>
</g>
<!-- A_keep&#45;&gt;B_keep -->
<g id="edge7" class="edge">
<title>A_keep&#45;&gt;B_keep</title>
<path fill="none" stroke="black" d="M181,-236.19C181,-228.94 181,-220.33 181,-212.17"/>
<polygon fill="black" stroke="black" points="184.5,-212.27 181,-202.27 177.5,-212.27 184.5,-212.27"/>
</g>
<!-- C_keep -->
<g id="node8" class="node">
<title>C_keep</title>
<ellipse fill="none" stroke="black" cx="181" cy="-108.82" rx="18.59" ry="18.59"/>
<text xml:space="preserve" text-anchor="middle" x="181" y="-104.14" font-family="Times,serif" font-size="14.00">C</text>
</g>
<!-- B_keep&#45;&gt;C_keep -->
<g id="edge8" class="edge">
<title>B_keep&#45;&gt;C_keep</title>
<path fill="none" stroke="black" stroke-dasharray="5,2" d="M181,-163.04C181,-155.73 181,-147.1 181,-138.94"/>
<polygon fill="black" stroke="black" points="184.5,-139.04 181,-129.04 177.5,-139.04 184.5,-139.04"/>
</g>
<!-- D_keep -->
<g id="node9" class="node">
<title>D_keep</title>
<ellipse fill="none" stroke="black" cx="153" cy="-35.12" rx="19.12" ry="19.12"/>
<text xml:space="preserve" text-anchor="middle" x="153" y="-30.44" font-family="Times,serif" font-size="14.00">D</text>
</g>
<!-- C_keep&#45;&gt;D_keep -->
<g id="edge9" class="edge">
<title>C_keep&#45;&gt;D_keep</title>
<path fill="none" stroke="black" stroke-dasharray="5,2" d="M174.51,-91.19C171.34,-83.07 167.44,-73.09 163.83,-63.86"/>
<polygon fill="black" stroke="black" points="167.1,-62.61 160.2,-54.56 160.58,-65.15 167.1,-62.61"/>
</g>
<!-- E_keep -->
<g id="node10" class="node">
<title>E_keep</title>
<ellipse fill="none" stroke="black" cx="209" cy="-35.12" rx="18.59" ry="18.59"/>
<text xml:space="preserve" text-anchor="middle" x="209" y="-30.44" font-family="Times,serif" font-size="14.00">E</text>
</g>
<!-- C_keep&#45;&gt;E_keep -->
<g id="edge10" class="edge">
<title>C_keep&#45;&gt;E_keep</title>
<path fill="none" stroke="black" d="M187.49,-91.19C190.75,-82.86 194.76,-72.57 198.44,-63.15"/>
<polygon fill="black" stroke="black" points="201.61,-64.65 201.99,-54.07 195.09,-62.11 201.61,-64.65"/>
</g>
<!-- A_rotate -->
<g id="node11" class="node">
<title>A_rotate</title>
<ellipse fill="none" stroke="black" cx="315" cy="-254.65" rx="18.06" ry="18.06"/>
<text xml:space="preserve" text-anchor="middle" x="315" y="-249.98" font-family="Times,serif" font-size="14.00">A</text>
</g>
<!-- B_rotate -->
<g id="node12" class="node">
<title>B_rotate</title>
<ellipse fill="none" stroke="black" cx="315" cy="-182" rx="18.59" ry="18.59"/>
<text xml:space="preserve" text-anchor="middle" x="315" y="-177.32" font-family="Times,serif" font-size="14.00">B</text>
</g>
<!-- A_rotate&#45;&gt;B_rotate -->
<g id="edge11" class="edge">
<title>A_rotate&#45;&gt;B_rotate</title>
<path fill="none" stroke="black" d="M315,-236.19C315,-228.94 315,-220.33 315,-212.17"/>
<polygon fill="black" stroke="black" points="318.5,-212.27 315,-202.27 311.5,-212.27 318.5,-212.27"/>
</g>
<!-- C_rotate -->
<g id="node13" class="node">
<title>C_rotate</title>
<ellipse fill="none" stroke="black" cx="315" cy="-108.82" rx="18.59" ry="18.59"/>
<text xml:space="preserve" text-anchor="middle" x="315" y="-104.14" font-family="Times,serif" font-size="14.00">C</text>
</g>
<!-- B_rotate&#45;&gt;C_rotate -->
<g id="edge12" class="edge">
<title>B_rotate&#45;&gt;C_rotate</title>
<path fill="none" stroke="black" d="M315,-163.04C315,-155.73 315,-147.1 315,-138.94"/>
<polygon fill="black" stroke="black" points="318.5,-139.04 315,-129.04 311.5,-139.04 318.5,-139.04"/>
</g>
<!-- D_rotate -->
<g id="node14" class="node">
<title>D_rotate</title>
<ellipse fill="none" stroke="black" cx="287" cy="-35.12" rx="19.12" ry="19.12"/>
<text xml:space="preserve" text-anchor="middle" x="287" y="-30.44" font-family="Times,serif" font-size="14.00">D</text>
</g>
<!-- C_rotate&#45;&gt;D_rotate -->
<g id="edge13" class="edge">
<title>C_rotate&#45;&gt;D_rotate</title>
<path fill="none" stroke="black" d="M308.51,-91.19C305.34,-83.07 301.44,-73.09 297.83,-63.86"/>
<polygon fill="black" stroke="black" points="301.1,-62.61 294.2,-54.56 294.58,-65.15 301.1,-62.61"/>
</g>
<!-- E_rotate -->
<g id="node15" class="node">
<title>E_rotate</title>
<ellipse fill="none" stroke="black" cx="343" cy="-35.12" rx="18.59" ry="18.59"/>
<text xml:space="preserve" text-anchor="middle" x="343" y="-30.44" font-family="Times,serif" font-size="14.00">E</text>
</g>
<!-- C_rotate&#45;&gt;E_rotate -->
<g id="edge14" class="edge">
<title>C_rotate&#45;&gt;E_rotate</title>
<path fill="none" stroke="black" d="M321.49,-91.19C324.75,-82.86 328.76,-72.57 332.44,-63.15"/>
<polygon fill="black" stroke="black" points="335.61,-64.65 335.99,-54.07 329.09,-62.11 335.61,-64.65"/>
</g>
</g>
</svg>
