<?xml version="1.0" encoding="UTF-8" standalone="no"?>
<!DOCTYPE svg PUBLIC "-//W3C//DTD SVG 1.1//EN"
 "http://www.w3.org/Graphics/SVG/1.1/DTD/svg11.dtd">
<!-- Generated by graphviz version 14.1.3 (20260303.0454)
 -->
<!-- Title: SplitCalls Pages: 1 -->
<svg width="300pt" height="188pt"
 viewBox="0.00 0.00 300.00 188.00" xmlns="http://www.w3.org/2000/svg" xmlns:xlink="http://www.w3.org/1999/xlink">
<g id="graph0" class="graph" transform="scale(1 1) rotate(0) translate(4 184)">
<title>SplitCalls</title>
<polygon fill="#ffffff" stroke="none" points="-4,4 -4,-184 296,-184 296,4 -4,4"/>
<!-- root -->
<g id="node1" class="node">
<title>root</title>
<polygon fill="none" stroke="black" points="173,-180 119,-180 119,-144 173,-144 173,-180"/>
<text xml:space="preserve" text-anchor="middle" x="146" y="-157.32" font-family="Times,serif" font-size="14.00">f(4)</text>
</g>
<!-- left -->
<g id="node2" class="node">
<title>left</title>
<polygon fill="none" stroke="black" points="136.88,-108 39.12,-108 39.12,-72 136.88,-72 136.88,-108"/>
<text xml:space="preserve" text-anchor="middle" x="88" y="-87.2" font-family="Times,serif" font-size="14.00">f(2)：先执行</text>
</g>
<!-- root&#45;&gt;left -->
<g id="edge1" class="edge">
<title>root&#45;&gt;left</title>
<path fill="none" stroke="black" d="M131.66,-143.7C124.92,-135.56 116.74,-125.69 109.3,-116.7"/>
<polygon fill="black" stroke="black" points="112.21,-114.74 103.14,-109.27 106.82,-119.2 112.21,-114.74"/>
</g>
<!-- right -->
<g id="node3" class="node">
<title>right</title>
<polygon fill="none" stroke="black" points="252.88,-108 155.12,-108 155.12,-72 252.88,-72 252.88,-108"/>
<text xml:space="preserve" text-anchor="middle" x="204" y="-87.2" font-family="Times,serif" font-size="14.00">f(2)：后执行</text>
</g>
<!-- root&#45;&gt;right -->
<g id="edge2" class="edge">
<title>root&#45;&gt;right</title>
<path fill="none" stroke="black" d="M160.34,-143.7C167.08,-135.56 175.26,-125.69 182.7,-116.7"/>
<polygon fill="black" stroke="black" points="185.18,-119.2 188.86,-109.27 179.79,-114.74 185.18,-119.2"/>
</g>
<!-- ll -->
<g id="node4" class="node">
<title>ll</title>
<polygon fill="none" stroke="black" points="54,-36 0,-36 0,0 54,0 54,-36"/>
<text xml:space="preserve" text-anchor="middle" x="27" y="-13.32" font-family="Times,serif" font-size="14.00">f(1)</text>
</g>
<!-- left&#45;&gt;ll -->
<g id="edge3" class="edge">
<title>left&#45;&gt;ll</title>
<path fill="none" stroke="black" d="M72.92,-71.7C65.83,-63.56 57.23,-53.69 49.4,-44.7"/>
<polygon fill="black" stroke="black" points="52.11,-42.49 42.9,-37.25 46.83,-47.08 52.11,-42.49"/>
</g>
<!-- lr -->
<g id="node5" class="node">
<title>lr</title>
<polygon fill="none" stroke="black" points="126,-36 72,-36 72,0 126,0 126,-36"/>
<text xml:space="preserve" text-anchor="middle" x="99" y="-13.32" font-family="Times,serif" font-size="14.00">f(1)</text>
</g>
<!-- left&#45;&gt;lr -->
<g id="edge4" class="edge">
<title>left&#45;&gt;lr</title>
<path fill="none" stroke="black" d="M90.72,-71.7C91.88,-64.32 93.26,-55.52 94.56,-47.25"/>
<polygon fill="black" stroke="black" points="97.98,-48.02 96.08,-37.6 91.07,-46.93 97.98,-48.02"/>
</g>
<!-- rl -->
<g id="node6" class="node">
<title>rl</title>
<polygon fill="none" stroke="black" points="220,-36 166,-36 166,0 220,0 220,-36"/>
<text xml:space="preserve" text-anchor="middle" x="193" y="-13.32" font-family="Times,serif" font-size="14.00">f(1)</text>
</g>
<!-- right&#45;&gt;rl -->
<g id="edge5" class="edge">
<title>right&#45;&gt;rl</title>
<path fill="none" stroke="black" d="M201.28,-71.7C200.12,-64.32 198.74,-55.52 197.44,-47.25"/>
<polygon fill="black" stroke="black" points="200.93,-46.93 195.92,-37.6 194.02,-48.02 200.93,-46.93"/>
</g>
<!-- rr -->
<g id="node7" class="node">
<title>rr</title>
<polygon fill="none" stroke="black" points="292,-36 238,-36 238,0 292,0 292,-36"/>
<text xml:space="preserve" text-anchor="middle" x="265" y="-13.32" font-family="Times,serif" font-size="14.00">f(1)</text>
</g>
<!-- right&#45;&gt;rr -->
<g id="edge6" class="edge">
<title>right&#45;&gt;rr</title>
<path fill="none" stroke="black" d="M219.08,-71.7C226.17,-63.56 234.77,-53.69 242.6,-44.7"/>
<polygon fill="black" stroke="black" points="245.17,-47.08 249.1,-37.25 239.89,-42.49 245.17,-47.08"/>
</g>
</g>
</svg>
