<?xml version="1.0" encoding="UTF-8" standalone="no"?>
<!DOCTYPE svg PUBLIC "-//W3C//DTD SVG 1.1//EN"
 "http://www.w3.org/Graphics/SVG/1.1/DTD/svg11.dtd">
<!-- Generated by graphviz version 14.1.3 (20260303.0454)
 -->
<!-- Title: LevelOrderInputTree Pages: 1 -->
<svg width="184pt" height="166pt"
 viewBox="0.00 0.00 184.00 166.00" xmlns="http://www.w3.org/2000/svg" xmlns:xlink="http://www.w3.org/1999/xlink">
<g id="graph0" class="graph" transform="scale(1 1) rotate(0) translate(4 162.4)">
<title>LevelOrderInputTree</title>
<polygon fill="white" stroke="none" points="-4,4 -4,-162.4 179.8,-162.4 179.8,4 -4,4"/>
<!-- null3 -->
<g id="node1" class="node">
<title>null3</title>
<polygon fill="none" stroke="#94a3b8" stroke-dasharray="5,2" points="129.4,-25.2 93.4,-25.2 93.4,-3.6 129.4,-3.6 129.4,-25.2"/>
<text xml:space="preserve" text-anchor="middle" x="111.4" y="-9.72" font-family="sans-serif" font-size="14.00" fill="#94a3b8">null</text>
</g>
<!-- 1 -->
<g id="node2" class="node">
<title>1</title>
<ellipse fill="#f8f9fa" stroke="#333333" cx="86.4" cy="-144" rx="14.4" ry="14.4"/>
<text xml:space="preserve" text-anchor="middle" x="86.4" y="-139.32" font-family="sans-serif" font-size="14.00">1</text>
</g>
<!-- 2 -->
<g id="node3" class="node">
<title>2</title>
<ellipse fill="#f8f9fa" stroke="#333333" cx="61.4" cy="-79.2" rx="14.4" ry="14.4"/>
<text xml:space="preserve" text-anchor="middle" x="61.4" y="-74.53" font-family="sans-serif" font-size="14.00">2</text>
</g>
<!-- 1&#45;&gt;2 -->
<g id="edge1" class="edge">
<title>1&#45;&gt;2</title>
<path fill="none" stroke="#555555" stroke-width="1.5" d="M81.34,-130.29C78.36,-122.8 74.49,-113.08 70.95,-104.2"/>
<polygon fill="#555555" stroke="#555555" stroke-width="1.5" points="74.24,-103 67.29,-95 67.74,-105.58 74.24,-103"/>
</g>
<!-- 3 -->
<g id="node4" class="node">
<title>3</title>
<ellipse fill="#f8f9fa" stroke="#333333" cx="111.4" cy="-79.2" rx="14.4" ry="14.4"/>
<text xml:space="preserve" text-anchor="middle" x="111.4" y="-74.53" font-family="sans-serif" font-size="14.00">3</text>
</g>
<!-- 1&#45;&gt;3 -->
<g id="edge2" class="edge">
<title>1&#45;&gt;3</title>
<path fill="none" stroke="#555555" stroke-width="1.5" d="M91.46,-130.29C94.44,-122.8 98.31,-113.08 101.85,-104.2"/>
<polygon fill="#555555" stroke="#555555" stroke-width="1.5" points="105.06,-105.58 105.51,-95 98.56,-103 105.06,-105.58"/>
</g>
<!-- 4 -->
<g id="node5" class="node">
<title>4</title>
<ellipse fill="#f8f9fa" stroke="#333333" cx="14.4" cy="-14.4" rx="14.4" ry="14.4"/>
<text xml:space="preserve" text-anchor="middle" x="14.4" y="-9.72" font-family="sans-serif" font-size="14.00">4</text>
</g>
<!-- 2&#45;&gt;4 -->
<g id="edge3" class="edge">
<title>2&#45;&gt;4</title>
<path fill="none" stroke="#555555" stroke-width="1.5" d="M53,-66.97C46.58,-58.4 37.56,-46.35 29.85,-36.05"/>
<polygon fill="#555555" stroke="#555555" stroke-width="1.5" points="32.88,-34.26 24.09,-28.35 27.28,-38.45 32.88,-34.26"/>
</g>
<!-- 5 -->
<g id="node6" class="node">
<title>5</title>
<ellipse fill="#f8f9fa" stroke="#333333" cx="61.4" cy="-14.4" rx="14.4" ry="14.4"/>
<text xml:space="preserve" text-anchor="middle" x="61.4" y="-9.72" font-family="sans-serif" font-size="14.00">5</text>
</g>
<!-- 2&#45;&gt;5 -->
<g id="edge4" class="edge">
<title>2&#45;&gt;5</title>
<path fill="none" stroke="#555555" stroke-width="1.5" d="M61.4,-64.57C61.4,-57.74 61.4,-49.24 61.4,-41.23"/>
<polygon fill="#555555" stroke="#555555" stroke-width="1.5" points="64.9,-41.27 61.4,-31.27 57.9,-41.27 64.9,-41.27"/>
</g>
<!-- 3&#45;&gt;null3 -->
<g id="edge5" class="edge">
<title>3&#45;&gt;null3</title>
<path fill="none" stroke="#94a3b8" stroke-width="1.5" stroke-dasharray="5,2" d="M111.4,-64.57C111.4,-56.72 111.4,-46.66 111.4,-37.68"/>
<polygon fill="#94a3b8" stroke="#94a3b8" stroke-width="1.5" points="114.9,-37.96 111.4,-27.96 107.9,-37.96 114.9,-37.96"/>
</g>
<!-- 7 -->
<g id="node7" class="node">
<title>7</title>
<ellipse fill="#f8f9fa" stroke="#333333" cx="161.4" cy="-14.4" rx="14.4" ry="14.4"/>
<text xml:space="preserve" text-anchor="middle" x="161.4" y="-9.72" font-family="sans-serif" font-size="14.00">7</text>
</g>
<!-- 3&#45;&gt;7 -->
<g id="edge6" class="edge">
<title>3&#45;&gt;7</title>
<path fill="none" stroke="#555555" stroke-width="1.5" d="M120.11,-67.26C127.06,-58.53 137,-46.05 145.38,-35.52"/>
<polygon fill="#555555" stroke="#555555" stroke-width="1.5" points="147.89,-37.99 151.38,-27.99 142.41,-33.63 147.89,-37.99"/>
</g>
</g>
</svg>
