<?xml version="1.0" encoding="UTF-8" standalone="no"?>
<!DOCTYPE svg PUBLIC "-//W3C//DTD SVG 1.1//EN"
 "http://www.w3.org/Graphics/SVG/1.1/DTD/svg11.dtd">
<!-- Generated by graphviz version 14.1.3 (20260303.0454)
 -->
<!-- Title: HuffmanTree Pages: 1 -->
<svg width="222pt" height="401pt"
 viewBox="0.00 0.00 222.00 401.00" xmlns="http://www.w3.org/2000/svg" xmlns:xlink="http://www.w3.org/1999/xlink">
<g id="graph0" class="graph" transform="scale(1 1) rotate(0) translate(4 396.97)">
<title>HuffmanTree</title>
<polygon fill="white" stroke="none" points="-4,4 -4,-396.97 217.6,-396.97 217.6,4 -4,4"/>
<!-- n100 -->
<g id="node1" class="node">
<title>n100</title>
<ellipse fill="none" stroke="black" cx="65.8" cy="-371.38" rx="21.58" ry="21.58"/>
<text xml:space="preserve" text-anchor="middle" x="65.8" y="-367.68" font-family="Times,serif" font-size="11.00">100</text>
</g>
<!-- n55 -->
<g id="node2" class="node">
<title>n55</title>
<ellipse fill="none" stroke="black" cx="109.8" cy="-281.25" rx="19.8" ry="19.8"/>
<text xml:space="preserve" text-anchor="middle" x="109.8" y="-277.55" font-family="Times,serif" font-size="11.00">55</text>
</g>
<!-- n100&#45;&gt;n55 -->
<g id="edge2" class="edge">
<title>n100&#45;&gt;n55</title>
<path fill="none" stroke="black" d="M75.13,-351.69C82.85,-336.23 93.73,-314.45 101.23,-299.42"/>
<text xml:space="preserve" text-anchor="middle" x="93.43" y="-322.3" font-family="Times,serif" font-size="10.00">1</text>
</g>
<!-- lF -->
<g id="node6" class="node">
<title>lF</title>
<polygon fill="none" stroke="black" points="71.6,-299.25 32,-299.25 32,-263.25 71.6,-263.25 71.6,-299.25"/>
<text xml:space="preserve" text-anchor="middle" x="51.8" y="-284.3" font-family="Times,serif" font-size="11.00">F</text>
<text xml:space="preserve" text-anchor="middle" x="51.8" y="-270.8" font-family="Times,serif" font-size="11.00">45</text>
</g>
<!-- n100&#45;&gt;lF -->
<g id="edge1" class="edge">
<title>n100&#45;&gt;lF</title>
<path fill="none" stroke="black" d="M62.55,-349.94C60.13,-334.69 56.85,-314.07 54.56,-299.61"/>
<text xml:space="preserve" text-anchor="middle" x="62.64" y="-322.3" font-family="Times,serif" font-size="10.00">0</text>
</g>
<!-- n25 -->
<g id="node3" class="node">
<title>n25</title>
<ellipse fill="none" stroke="black" cx="77.8" cy="-192.9" rx="19.8" ry="19.8"/>
<text xml:space="preserve" text-anchor="middle" x="77.8" y="-189.2" font-family="Times,serif" font-size="11.00">25</text>
</g>
<!-- n55&#45;&gt;n25 -->
<g id="edge3" class="edge">
<title>n55&#45;&gt;n25</title>
<path fill="none" stroke="black" d="M103.17,-262.36C97.68,-247.54 89.91,-226.58 84.42,-211.77"/>
<text xml:space="preserve" text-anchor="middle" x="98.72" y="-233.95" font-family="Times,serif" font-size="10.00">0</text>
</g>
<!-- n30 -->
<g id="node4" class="node">
<title>n30</title>
<ellipse fill="none" stroke="black" cx="135.8" cy="-192.9" rx="19.8" ry="19.8"/>
<text xml:space="preserve" text-anchor="middle" x="135.8" y="-189.2" font-family="Times,serif" font-size="11.00">30</text>
</g>
<!-- n55&#45;&gt;n30 -->
<g id="edge4" class="edge">
<title>n55&#45;&gt;n30</title>
<path fill="none" stroke="black" d="M115.31,-261.94C119.73,-247.28 125.88,-226.83 130.29,-212.19"/>
<text xml:space="preserve" text-anchor="middle" x="127.36" y="-233.95" font-family="Times,serif" font-size="10.00">1</text>
</g>
<!-- lC -->
<g id="node7" class="node">
<title>lC</title>
<polygon fill="none" stroke="black" points="39.6,-122.55 0,-122.55 0,-86.55 39.6,-86.55 39.6,-122.55"/>
<text xml:space="preserve" text-anchor="middle" x="19.8" y="-107.6" font-family="Times,serif" font-size="11.00">C</text>
<text xml:space="preserve" text-anchor="middle" x="19.8" y="-94.1" font-family="Times,serif" font-size="11.00">12</text>
</g>
<!-- n25&#45;&gt;lC -->
<g id="edge5" class="edge">
<title>n25&#45;&gt;lC</title>
<path fill="none" stroke="black" d="M67.16,-176.06C57.02,-160.97 41.8,-138.3 31.37,-122.77"/>
<text xml:space="preserve" text-anchor="middle" x="55.27" y="-145.6" font-family="Times,serif" font-size="10.00">0</text>
</g>
<!-- lD -->
<g id="node8" class="node">
<title>lD</title>
<polygon fill="none" stroke="black" points="97.6,-122.55 58,-122.55 58,-86.55 97.6,-86.55 97.6,-122.55"/>
<text xml:space="preserve" text-anchor="middle" x="77.8" y="-107.6" font-family="Times,serif" font-size="11.00">D</text>
<text xml:space="preserve" text-anchor="middle" x="77.8" y="-94.1" font-family="Times,serif" font-size="11.00">13</text>
</g>
<!-- n25&#45;&gt;lD -->
<g id="edge6" class="edge">
<title>n25&#45;&gt;lD</title>
<path fill="none" stroke="black" d="M77.8,-172.74C77.8,-157.83 77.8,-137.33 77.8,-122.9"/>
<text xml:space="preserve" text-anchor="middle" x="80.8" y="-145.6" font-family="Times,serif" font-size="10.00">1</text>
</g>
<!-- n14 -->
<g id="node5" class="node">
<title>n14</title>
<ellipse fill="none" stroke="black" cx="135.8" cy="-104.55" rx="19.8" ry="19.8"/>
<text xml:space="preserve" text-anchor="middle" x="135.8" y="-100.85" font-family="Times,serif" font-size="11.00">14</text>
</g>
<!-- n30&#45;&gt;n14 -->
<g id="edge7" class="edge">
<title>n30&#45;&gt;n14</title>
<path fill="none" stroke="black" d="M135.8,-172.74C135.8,-158.43 135.8,-138.96 135.8,-124.66"/>
<text xml:space="preserve" text-anchor="middle" x="138.8" y="-145.6" font-family="Times,serif" font-size="10.00">0</text>
</g>
<!-- lE -->
<g id="node9" class="node">
<title>lE</title>
<polygon fill="none" stroke="black" points="213.6,-122.55 174,-122.55 174,-86.55 213.6,-86.55 213.6,-122.55"/>
<text xml:space="preserve" text-anchor="middle" x="193.8" y="-107.6" font-family="Times,serif" font-size="11.00">E</text>
<text xml:space="preserve" text-anchor="middle" x="193.8" y="-94.1" font-family="Times,serif" font-size="11.00">16</text>
</g>
<!-- n30&#45;&gt;lE -->
<g id="edge8" class="edge">
<title>n30&#45;&gt;lE</title>
<path fill="none" stroke="black" d="M146.44,-176.06C156.58,-160.97 171.8,-138.3 182.23,-122.77"/>
<text xml:space="preserve" text-anchor="middle" x="171.27" y="-145.6" font-family="Times,serif" font-size="10.00">1</text>
</g>
<!-- lA -->
<g id="node10" class="node">
<title>lA</title>
<polygon fill="none" stroke="black" points="126.6,-36 87,-36 87,0 126.6,0 126.6,-36"/>
<text xml:space="preserve" text-anchor="middle" x="106.8" y="-21.05" font-family="Times,serif" font-size="11.00">A</text>
<text xml:space="preserve" text-anchor="middle" x="106.8" y="-7.55" font-family="Times,serif" font-size="11.00">5</text>
</g>
<!-- n14&#45;&gt;lA -->
<g id="edge9" class="edge">
<title>n14&#45;&gt;lA</title>
<path fill="none" stroke="black" d="M129.65,-85.62C124.66,-71.08 117.67,-50.7 112.74,-36.33"/>
<text xml:space="preserve" text-anchor="middle" x="126.04" y="-57.25" font-family="Times,serif" font-size="10.00">0</text>
</g>
<!-- lB -->
<g id="node11" class="node">
<title>lB</title>
<polygon fill="none" stroke="black" points="184.6,-36 145,-36 145,0 184.6,0 184.6,-36"/>
<text xml:space="preserve" text-anchor="middle" x="164.8" y="-21.05" font-family="Times,serif" font-size="11.00">B</text>
<text xml:space="preserve" text-anchor="middle" x="164.8" y="-7.55" font-family="Times,serif" font-size="11.00">9</text>
</g>
<!-- n14&#45;&gt;lB -->
<g id="edge10" class="edge">
<title>n14&#45;&gt;lB</title>
<path fill="none" stroke="black" d="M141.95,-85.62C146.94,-71.08 153.93,-50.7 158.86,-36.33"/>
<text xml:space="preserve" text-anchor="middle" x="155.04" y="-57.25" font-family="Times,serif" font-size="10.00">1</text>
</g>
</g>
</svg>
