<?xml version="1.0" encoding="UTF-8" standalone="no"?>
<!DOCTYPE svg PUBLIC "-//W3C//DTD SVG 1.1//EN"
 "http://www.w3.org/Graphics/SVG/1.1/DTD/svg11.dtd">
<!-- Generated by graphviz version 14.1.3 (20260303.0454)
 -->
<!-- Title: BstRemovalSingle Pages: 1 -->
<svg width="122pt" height="223pt"
 viewBox="0.00 0.00 122.00 223.00" xmlns="http://www.w3.org/2000/svg" xmlns:xlink="http://www.w3.org/1999/xlink">
<g id="graph0" class="graph" transform="scale(1 1) rotate(0) translate(4 219.1)">
<title>BstRemovalSingle</title>
<polygon fill="white" stroke="none" points="-4,4 -4,-219.1 117.7,-219.1 117.7,4 -4,4"/>
<!-- 40 -->
<g id="node1" class="node">
<title>40</title>
<ellipse fill="none" stroke="black" cx="56.85" cy="-191.25" rx="23.85" ry="23.85"/>
<text xml:space="preserve" text-anchor="middle" x="56.85" y="-186.58" font-family="Times,serif" font-size="14.00">40</text>
</g>
<!-- 20 -->
<g id="node2" class="node">
<title>20</title>
<ellipse fill="none" stroke="black" cx="23.85" cy="-107.55" rx="23.85" ry="23.85"/>
<text xml:space="preserve" text-anchor="middle" x="23.85" y="-102.88" font-family="Times,serif" font-size="14.00">20</text>
</g>
<!-- 40&#45;&gt;20 -->
<g id="edge1" class="edge">
<title>40&#45;&gt;20</title>
<path fill="none" stroke="black" d="M48.18,-168.79C44.72,-160.22 40.66,-150.18 36.87,-140.78"/>
<polygon fill="black" stroke="black" points="40.13,-139.52 33.14,-131.56 33.64,-142.14 40.13,-139.52"/>
</g>
<!-- 70 -->
<g id="node3" class="node">
<title>70</title>
<ellipse fill="none" stroke="black" cx="89.85" cy="-107.55" rx="23.85" ry="23.85"/>
<text xml:space="preserve" text-anchor="middle" x="89.85" y="-102.88" font-family="Times,serif" font-size="14.00">70</text>
</g>
<!-- 40&#45;&gt;70 -->
<g id="edge2" class="edge">
<title>40&#45;&gt;70</title>
<path fill="none" stroke="black" d="M65.52,-168.79C68.98,-160.22 73.04,-150.18 76.83,-140.78"/>
<polygon fill="black" stroke="black" points="80.06,-142.14 80.56,-131.56 73.57,-139.52 80.06,-142.14"/>
</g>
<!-- 30 -->
<g id="node4" class="node">
<title>30</title>
<ellipse fill="none" stroke="black" cx="23.85" cy="-23.85" rx="23.85" ry="23.85"/>
<text xml:space="preserve" text-anchor="middle" x="23.85" y="-19.18" font-family="Times,serif" font-size="14.00">30</text>
</g>
<!-- 20&#45;&gt;30 -->
<g id="edge3" class="edge">
<title>20&#45;&gt;30</title>
<path fill="none" stroke="black" d="M23.85,-83.36C23.85,-75.94 23.85,-67.56 23.85,-59.51"/>
<polygon fill="black" stroke="black" points="27.35,-59.62 23.85,-49.62 20.35,-59.62 27.35,-59.62"/>
</g>
</g>
</svg>
