<?xml version="1.0" encoding="UTF-8" standalone="no"?>
<!DOCTYPE svg PUBLIC "-//W3C//DTD SVG 1.1//EN"
 "http://www.w3.org/Graphics/SVG/1.1/DTD/svg11.dtd">
<!-- Generated by graphviz version 14.1.3 (20260303.0454)
 -->
<!-- Title: MemoryByteGrid Pages: 1 -->
<svg width="642pt" height="89pt"
 viewBox="0.00 0.00 642.00 89.00" xmlns="http://www.w3.org/2000/svg" xmlns:xlink="http://www.w3.org/1999/xlink">
<g id="graph0" class="graph" transform="scale(1 1) rotate(0) translate(4 85)">
<title>MemoryByteGrid</title>
<polygon fill="white" stroke="none" points="-4,4 -4,-85 637.75,-85 637.75,4 -4,4"/>
<!-- mem -->
<g id="node1" class="node">
<title>mem</title>
<polygon fill="#ffffff" stroke="none" points="0,0 0,-81 633.75,-81 633.75,0 0,0"/>
<polygon fill="#f1f5f9" stroke="none" points="0,-42 0,-81 174.75,-81 174.75,-42 0,-42"/>
<polygon fill="none" stroke="black" points="0,-42 0,-81 174.75,-81 174.75,-42 0,-42"/>
<text xml:space="preserve" text-anchor="start" x="9" y="-59.7" font-family="sans-serif" font-weight="bold" font-size="14.00">内存物理地址</text>
<polygon fill="#f8fafc" stroke="none" points="174.75,-42 174.75,-81 246,-81 246,-42 174.75,-42"/>
<polygon fill="none" stroke="black" points="174.75,-42 174.75,-81 246,-81 246,-42 174.75,-42"/>
<text xml:space="preserve" text-anchor="start" x="183.75" y="-56.62" font-family="sans-serif" font-size="14.00">0x1000</text>
<polygon fill="#f8fafc" stroke="none" points="246,-42 246,-81 317.25,-81 317.25,-42 246,-42"/>
<polygon fill="none" stroke="black" points="246,-42 246,-81 317.25,-81 317.25,-42 246,-42"/>
<text xml:space="preserve" text-anchor="start" x="255" y="-56.62" font-family="sans-serif" font-size="14.00">0x1001</text>
<polygon fill="#f8fafc" stroke="none" points="317.25,-42 317.25,-81 388.5,-81 388.5,-42 317.25,-42"/>
<polygon fill="none" stroke="black" points="317.25,-42 317.25,-81 388.5,-81 388.5,-42 317.25,-42"/>
<text xml:space="preserve" text-anchor="start" x="326.25" y="-56.62" font-family="sans-serif" font-size="14.00">0x1002</text>
<polygon fill="#f8fafc" stroke="none" points="388.5,-42 388.5,-81 459.75,-81 459.75,-42 388.5,-42"/>
<polygon fill="none" stroke="black" points="388.5,-42 388.5,-81 459.75,-81 459.75,-42 388.5,-42"/>
<text xml:space="preserve" text-anchor="start" x="397.5" y="-56.62" font-family="sans-serif" font-size="14.00">0x1003</text>
<polygon fill="#f8fafc" stroke="none" points="459.75,-42 459.75,-81 531,-81 531,-42 459.75,-42"/>
<polygon fill="none" stroke="black" points="459.75,-42 459.75,-81 531,-81 531,-42 459.75,-42"/>
<text xml:space="preserve" text-anchor="start" x="468.75" y="-56.62" font-family="sans-serif" font-size="14.00">0x1004</text>
<polygon fill="#f8fafc" stroke="none" points="531,-42 531,-81 602.25,-81 602.25,-42 531,-42"/>
<polygon fill="none" stroke="black" points="531,-42 531,-81 602.25,-81 602.25,-42 531,-42"/>
<text xml:space="preserve" text-anchor="start" x="540" y="-56.62" font-family="sans-serif" font-size="14.00">0x1005</text>
<polygon fill="#f8fafc" stroke="none" points="602.25,-42 602.25,-81 633.75,-81 633.75,-42 602.25,-42"/>
<polygon fill="none" stroke="black" points="602.25,-42 602.25,-81 633.75,-81 633.75,-42 602.25,-42"/>
<text xml:space="preserve" text-anchor="start" x="611.25" y="-56.62" font-family="sans-serif" font-size="14.00">...</text>
<polygon fill="#f1f5f9" stroke="none" points="0,0 0,-42 174.75,-42 174.75,0 0,0"/>
<polygon fill="none" stroke="black" points="0,0 0,-42 174.75,-42 174.75,0 0,0"/>
<text xml:space="preserve" text-anchor="start" x="9" y="-19.2" font-family="sans-serif" font-weight="bold" font-size="14.00">连续存储单元 (RAM) &#160;&#160;&#160;</text>
<polygon fill="#e2e8f0" stroke="none" points="174.75,0 174.75,-42 246,-42 246,0 174.75,0"/>
<polygon fill="none" stroke="black" points="174.75,0 174.75,-42 246,-42 246,0 174.75,0"/>
<text xml:space="preserve" text-anchor="start" x="189.38" y="-20.7" font-family="sans-serif" font-size="14.00">1 字节</text>
<text xml:space="preserve" text-anchor="start" x="196.88" y="-10.5" font-family="sans-serif" font-size="10.00" fill="#64748b">8 bits</text>
<polygon fill="#e2e8f0" stroke="none" points="246,0 246,-42 317.25,-42 317.25,0 246,0"/>
<polygon fill="none" stroke="black" points="246,0 246,-42 317.25,-42 317.25,0 246,0"/>
<text xml:space="preserve" text-anchor="start" x="260.62" y="-20.7" font-family="sans-serif" font-size="14.00">1 字节</text>
<text xml:space="preserve" text-anchor="start" x="268.12" y="-10.5" font-family="sans-serif" font-size="10.00" fill="#64748b">8 bits</text>
<polygon fill="#e2e8f0" stroke="none" points="317.25,0 317.25,-42 388.5,-42 388.5,0 317.25,0"/>
<polygon fill="none" stroke="black" points="317.25,0 317.25,-42 388.5,-42 388.5,0 317.25,0"/>
<text xml:space="preserve" text-anchor="start" x="331.88" y="-20.7" font-family="sans-serif" font-size="14.00">1 字节</text>
<text xml:space="preserve" text-anchor="start" x="339.38" y="-10.5" font-family="sans-serif" font-size="10.00" fill="#64748b">8 bits</text>
<polygon fill="#e2e8f0" stroke="none" points="388.5,0 388.5,-42 459.75,-42 459.75,0 388.5,0"/>
<polygon fill="none" stroke="black" points="388.5,0 388.5,-42 459.75,-42 459.75,0 388.5,0"/>
<text xml:space="preserve" text-anchor="start" x="403.12" y="-20.7" font-family="sans-serif" font-size="14.00">1 字节</text>
<text xml:space="preserve" text-anchor="start" x="410.62" y="-10.5" font-family="sans-serif" font-size="10.00" fill="#64748b">8 bits</text>
<polygon fill="#e2e8f0" stroke="none" points="459.75,0 459.75,-42 531,-42 531,0 459.75,0"/>
<polygon fill="none" stroke="black" points="459.75,0 459.75,-42 531,-42 531,0 459.75,0"/>
<text xml:space="preserve" text-anchor="start" x="474.38" y="-20.7" font-family="sans-serif" font-size="14.00">1 字节</text>
<text xml:space="preserve" text-anchor="start" x="481.88" y="-10.5" font-family="sans-serif" font-size="10.00" fill="#64748b">8 bits</text>
<polygon fill="#e2e8f0" stroke="none" points="531,0 531,-42 602.25,-42 602.25,0 531,0"/>
<polygon fill="none" stroke="black" points="531,0 531,-42 602.25,-42 602.25,0 531,0"/>
<text xml:space="preserve" text-anchor="start" x="545.62" y="-20.7" font-family="sans-serif" font-size="14.00">1 字节</text>
<text xml:space="preserve" text-anchor="start" x="553.12" y="-10.5" font-family="sans-serif" font-size="10.00" fill="#64748b">8 bits</text>
<polygon fill="#f8fafc" stroke="none" points="602.25,0 602.25,-42 633.75,-42 633.75,0 602.25,0"/>
<polygon fill="none" stroke="black" points="602.25,0 602.25,-42 633.75,-42 633.75,0 602.25,0"/>
<text xml:space="preserve" text-anchor="start" x="611.25" y="-16.12" font-family="sans-serif" font-size="14.00">...</text>
</g>
</g>
</svg>
