<?xml version="1.0" encoding="UTF-8" standalone="no"?>
<!DOCTYPE svg PUBLIC "-//W3C//DTD SVG 1.1//EN"
 "http://www.w3.org/Graphics/SVG/1.1/DTD/svg11.dtd">
<!-- Generated by graphviz version 14.1.3 (20260303.0454)
 -->
<!-- Title: SinglyLinkedTailPredecessor Pages: 1 -->
<svg width="445pt" height="171pt"
 viewBox="0.00 0.00 445.00 171.00" xmlns="http://www.w3.org/2000/svg" xmlns:xlink="http://www.w3.org/1999/xlink">
<g id="graph0" class="graph" transform="scale(1 1) rotate(0) translate(4 166.76)">
<title>SinglyLinkedTailPredecessor</title>
<polygon fill="#ffffff" stroke="none" points="-4,4 -4,-166.76 441.16,-166.76 441.16,4 -4,4"/>
<!-- head -->
<g id="node1" class="node">
<title>head</title>
<path fill="#f8fafc" stroke="none" d="M64.33,-153.38C64.33,-153.38 41.33,-153.38 41.33,-153.38 38.45,-153.38 35.58,-150.51 35.58,-147.63 35.58,-147.63 35.58,-141.88 35.58,-141.88 35.58,-139.01 38.45,-136.13 41.33,-136.13 41.33,-136.13 64.33,-136.13 64.33,-136.13 67.2,-136.13 70.08,-139.01 70.08,-141.88 70.08,-141.88 70.08,-147.63 70.08,-147.63 70.08,-150.51 67.2,-153.38 64.33,-153.38"/>
<text xml:space="preserve" text-anchor="middle" x="52.83" y="-140.08" font-family="sans-serif" font-size="14.00" fill="#0f172a">head</text>
</g>
<!-- n10 -->
<g id="node2" class="node">
<title>n10</title>
<path fill="#f8fafc" stroke="#64748b" d="M183.66,-162.76C183.66,-162.76 153.66,-162.76 153.66,-162.76 147.66,-162.76 141.66,-156.76 141.66,-150.76 141.66,-150.76 141.66,-138.76 141.66,-138.76 141.66,-132.76 147.66,-126.76 153.66,-126.76 153.66,-126.76 183.66,-126.76 183.66,-126.76 189.66,-126.76 195.66,-132.76 195.66,-138.76 195.66,-138.76 195.66,-150.76 195.66,-150.76 195.66,-156.76 189.66,-162.76 183.66,-162.76"/>
<text xml:space="preserve" text-anchor="middle" x="168.66" y="-140.08" font-family="sans-serif" font-size="14.00" fill="#0f172a">10</text>
</g>
<!-- head&#45;&gt;n10 -->
<g id="edge1" class="edge">
<title>head&#45;&gt;n10</title>
<path fill="none" stroke="#4655e8" d="M69.66,-144.76C85.83,-144.76 111.49,-144.76 132.5,-144.76"/>
<polygon fill="#4655e8" stroke="#4655e8" points="132.46,-147.39 139.96,-144.76 132.46,-142.14 132.46,-147.39"/>
</g>
<!-- n20 -->
<g id="node3" class="node">
<title>n20</title>
<path fill="#f8fafc" stroke="#64748b" d="M273.66,-162.76C273.66,-162.76 243.66,-162.76 243.66,-162.76 237.66,-162.76 231.66,-156.76 231.66,-150.76 231.66,-150.76 231.66,-138.76 231.66,-138.76 231.66,-132.76 237.66,-126.76 243.66,-126.76 243.66,-126.76 273.66,-126.76 273.66,-126.76 279.66,-126.76 285.66,-132.76 285.66,-138.76 285.66,-138.76 285.66,-150.76 285.66,-150.76 285.66,-156.76 279.66,-162.76 273.66,-162.76"/>
<text xml:space="preserve" text-anchor="middle" x="258.66" y="-140.08" font-family="sans-serif" font-size="14.00" fill="#0f172a">20</text>
</g>
<!-- n10&#45;&gt;n20 -->
<g id="edge2" class="edge">
<title>n10&#45;&gt;n20</title>
<path fill="none" stroke="#4655e8" d="M196.06,-144.76C204.33,-144.76 213.59,-144.76 222.37,-144.76"/>
<polygon fill="#4655e8" stroke="#4655e8" points="222.26,-147.39 229.76,-144.76 222.26,-142.14 222.26,-147.39"/>
</g>
<!-- n30 -->
<g id="node4" class="node">
<title>n30</title>
<path fill="#f8fafc" stroke="#64748b" d="M363.66,-162.76C363.66,-162.76 333.66,-162.76 333.66,-162.76 327.66,-162.76 321.66,-156.76 321.66,-150.76 321.66,-150.76 321.66,-138.76 321.66,-138.76 321.66,-132.76 327.66,-126.76 333.66,-126.76 333.66,-126.76 363.66,-126.76 363.66,-126.76 369.66,-126.76 375.66,-132.76 375.66,-138.76 375.66,-138.76 375.66,-150.76 375.66,-150.76 375.66,-156.76 369.66,-162.76 363.66,-162.76"/>
<text xml:space="preserve" text-anchor="middle" x="348.66" y="-140.08" font-family="sans-serif" font-size="14.00" fill="#0f172a">30</text>
</g>
<!-- n20&#45;&gt;n30 -->
<g id="edge3" class="edge">
<title>n20&#45;&gt;n30</title>
<path fill="none" stroke="#4655e8" d="M286.06,-144.76C294.33,-144.76 303.59,-144.76 312.37,-144.76"/>
<polygon fill="#4655e8" stroke="#4655e8" points="312.26,-147.39 319.76,-144.76 312.26,-142.14 312.26,-147.39"/>
</g>
<!-- null_node -->
<g id="node5" class="node">
<title>null_node</title>
<path fill="#f8fafc" stroke="none" d="M431.41,-153.38C431.41,-153.38 417.41,-153.38 417.41,-153.38 414.53,-153.38 411.66,-150.51 411.66,-147.63 411.66,-147.63 411.66,-141.88 411.66,-141.88 411.66,-139.01 414.53,-136.13 417.41,-136.13 417.41,-136.13 431.41,-136.13 431.41,-136.13 434.28,-136.13 437.16,-139.01 437.16,-141.88 437.16,-141.88 437.16,-147.63 437.16,-147.63 437.16,-150.51 434.28,-153.38 431.41,-153.38"/>
<text xml:space="preserve" text-anchor="middle" x="424.41" y="-140.08" font-family="sans-serif" font-size="14.00" fill="#0f172a">null</text>
</g>
<!-- n30&#45;&gt;null_node -->
<g id="edge4" class="edge">
<title>n30&#45;&gt;null_node</title>
<path fill="none" stroke="#4655e8" d="M375.87,-144.76C384.68,-144.76 394.37,-144.76 402.7,-144.76"/>
<polygon fill="#4655e8" stroke="#4655e8" points="402.7,-147.39 410.2,-144.76 402.7,-142.14 402.7,-147.39"/>
</g>
<!-- predecessor_note -->
<g id="node6" class="node">
<title>predecessor_note</title>
<polygon fill="#fff7ed" stroke="#c2410c" points="99.66,-53.52 0,-53.52 0,0 105.66,0 105.66,-47.52 99.66,-53.52"/>
<polyline fill="none" stroke="#c2410c" points="99.66,-53.52 99.66,-47.52"/>
<polyline fill="none" stroke="#c2410c" points="105.66,-47.52 99.66,-47.52"/>
<text xml:space="preserve" text-anchor="middle" x="52.83" y="-34.46" font-family="sans-serif" font-size="14.00" fill="#0f172a">删除尾节点前</text>
<text xml:space="preserve" text-anchor="middle" x="52.83" y="-13.46" font-family="sans-serif" font-size="14.00" fill="#0f172a">必须找到前驱</text>
</g>
<!-- predecessor_note&#45;&gt;n20 -->
<g id="edge5" class="edge">
<title>predecessor_note&#45;&gt;n20</title>
<path fill="none" stroke="#c2410c" stroke-dasharray="5,2" d="M100.85,-53.98C138.4,-75.72 190.12,-105.66 223.72,-125.11"/>
<polygon fill="#c2410c" stroke="#c2410c" points="222.32,-127.34 230.13,-128.82 224.95,-122.79 222.32,-127.34"/>
</g>
<!-- tail_note -->
<g id="node7" class="node">
<title>tail_note</title>
<path fill="#f8fafc" stroke="none" d="M57.58,-104.38C57.58,-104.38 48.08,-104.38 48.08,-104.38 45.2,-104.38 42.33,-101.51 42.33,-98.63 42.33,-98.63 42.33,-92.88 42.33,-92.88 42.33,-90.01 45.2,-87.13 48.08,-87.13 48.08,-87.13 57.58,-87.13 57.58,-87.13 60.45,-87.13 63.33,-90.01 63.33,-92.88 63.33,-92.88 63.33,-98.63 63.33,-98.63 63.33,-101.51 60.45,-104.38 57.58,-104.38"/>
<text xml:space="preserve" text-anchor="middle" x="52.83" y="-91.08" font-family="sans-serif" font-size="14.00" fill="#0f172a">tail</text>
</g>
<!-- tail_note&#45;&gt;n30 -->
<g id="edge6" class="edge">
<title>tail_note&#45;&gt;n30</title>
<path fill="none" stroke="#4655e8" stroke-dasharray="5,2" d="M62.9,-95.14C94.4,-93.26 201.76,-89.1 285.66,-112.76 295.03,-115.4 304.63,-119.54 313.39,-123.98"/>
<polygon fill="#4655e8" stroke="#4655e8" points="311.98,-126.2 319.83,-127.39 314.44,-121.56 311.98,-126.2"/>
</g>
</g>
</svg>
