<?xml version="1.0" encoding="UTF-8" standalone="no"?>
<!DOCTYPE svg PUBLIC "-//W3C//DTD SVG 1.1//EN"
 "http://www.w3.org/Graphics/SVG/1.1/DTD/svg11.dtd">
<!-- Generated by graphviz version 14.1.3 (20260303.0454)
 -->
<!-- Title: PathCompression Pages: 1 -->
<svg width="531pt" height="389pt"
 viewBox="0.00 0.00 531.00 389.00" xmlns="http://www.w3.org/2000/svg" xmlns:xlink="http://www.w3.org/1999/xlink">
<g id="graph0" class="graph" transform="scale(1 1) rotate(0) translate(4 384.75)">
<title>PathCompression</title>
<polygon fill="white" stroke="none" points="-4,4 -4,-384.75 527,-384.75 527,4 -4,4"/>
<g id="clust1" class="cluster">
<title>cluster_before</title>
<polygon fill="none" stroke="#888888" stroke-dasharray="5,2" points="8,-8 8,-372.75 222,-372.75 222,-8 8,-8"/>
<text xml:space="preserve" text-anchor="middle" x="115" y="-355.45" font-family="Times,serif" font-size="14.00">Find(7) 之前：链状，深度为 3</text>
</g>
<g id="clust2" class="cluster">
<title>cluster_after</title>
<polygon fill="none" stroke="#888888" stroke-dasharray="5,2" points="230,-190.5 230,-372.75 515,-372.75 515,-190.5 230,-190.5"/>
<text xml:space="preserve" text-anchor="middle" x="372.5" y="-355.45" font-family="Times,serif" font-size="14.00">Find(7) 之后：路径上各节点直接指向根 0</text>
</g>
<!-- b7 -->
<g id="node1" class="node">
<title>b7</title>
<ellipse fill="none" stroke="black" cx="100" cy="-311.75" rx="18" ry="18"/>
<text xml:space="preserve" text-anchor="middle" x="100" y="-307.07" font-family="Times,serif" font-size="14.00">7</text>
</g>
<!-- b5 -->
<g id="node2" class="node">
<title>b5</title>
<ellipse fill="none" stroke="black" cx="100" cy="-222.5" rx="18" ry="18"/>
<text xml:space="preserve" text-anchor="middle" x="100" y="-217.82" font-family="Times,serif" font-size="14.00">5</text>
</g>
<!-- b7&#45;&gt;b5 -->
<g id="edge1" class="edge">
<title>b7&#45;&gt;b5</title>
<path fill="none" stroke="black" d="M100,-293.51C100,-280.85 100,-263.42 100,-249.13"/>
<polygon fill="black" stroke="black" points="102.45,-249.22 100,-242.22 97.55,-249.22 102.45,-249.22"/>
<text xml:space="preserve" text-anchor="middle" x="123.62" y="-262.45" font-family="Times,serif" font-size="14.00">parent</text>
</g>
<!-- b2 -->
<g id="node3" class="node">
<title>b2</title>
<ellipse fill="none" stroke="black" cx="100" cy="-129.25" rx="18" ry="18"/>
<text xml:space="preserve" text-anchor="middle" x="100" y="-124.58" font-family="Times,serif" font-size="14.00">2</text>
</g>
<!-- b5&#45;&gt;b2 -->
<g id="edge2" class="edge">
<title>b5&#45;&gt;b2</title>
<path fill="none" stroke="black" d="M100,-204.34C100,-190.66 100,-171.3 100,-155.8"/>
<polygon fill="black" stroke="black" points="102.45,-156.16 100,-149.16 97.55,-156.16 102.45,-156.16"/>
<text xml:space="preserve" text-anchor="middle" x="123.62" y="-169.2" font-family="Times,serif" font-size="14.00">parent</text>
</g>
<!-- b0 -->
<g id="node4" class="node">
<title>b0</title>
<ellipse fill="none" stroke="black" cx="100" cy="-40" rx="18" ry="18"/>
<text xml:space="preserve" text-anchor="middle" x="100" y="-35.33" font-family="Times,serif" font-size="14.00">0</text>
</g>
<!-- b2&#45;&gt;b0 -->
<g id="edge3" class="edge">
<title>b2&#45;&gt;b0</title>
<path fill="none" stroke="black" d="M100,-111.01C100,-98.35 100,-80.92 100,-66.63"/>
<polygon fill="black" stroke="black" points="102.45,-66.72 100,-59.72 97.55,-66.72 102.45,-66.72"/>
<text xml:space="preserve" text-anchor="middle" x="123.62" y="-79.95" font-family="Times,serif" font-size="14.00">parent</text>
</g>
<!-- a0 -->
<g id="node5" class="node">
<title>a0</title>
<ellipse fill="none" stroke="black" cx="358" cy="-222.5" rx="18" ry="18"/>
<text xml:space="preserve" text-anchor="middle" x="358" y="-217.82" font-family="Times,serif" font-size="14.00">0</text>
</g>
<!-- a2 -->
<g id="node6" class="node">
<title>a2</title>
<ellipse fill="none" stroke="black" cx="288" cy="-311.75" rx="18" ry="18"/>
<text xml:space="preserve" text-anchor="middle" x="288" y="-307.07" font-family="Times,serif" font-size="14.00">2</text>
</g>
<!-- a2&#45;&gt;a0 -->
<g id="edge4" class="edge">
<title>a2&#45;&gt;a0</title>
<path fill="none" stroke="black" d="M291.21,-293.91C293.94,-282.97 298.73,-268.87 306.75,-258.5 314.21,-248.85 325.08,-240.9 334.9,-235.02"/>
<polygon fill="black" stroke="black" points="335.92,-237.26 340.81,-231.68 333.51,-232.99 335.92,-237.26"/>
<text xml:space="preserve" text-anchor="middle" x="330.38" y="-262.45" font-family="Times,serif" font-size="14.00">parent</text>
</g>
<!-- a5 -->
<g id="node7" class="node">
<title>a5</title>
<ellipse fill="none" stroke="black" cx="358" cy="-311.75" rx="18" ry="18"/>
<text xml:space="preserve" text-anchor="middle" x="358" y="-307.07" font-family="Times,serif" font-size="14.00">5</text>
</g>
<!-- a5&#45;&gt;a0 -->
<g id="edge5" class="edge">
<title>a5&#45;&gt;a0</title>
<path fill="none" stroke="black" d="M358,-293.51C358,-280.85 358,-263.42 358,-249.13"/>
<polygon fill="black" stroke="black" points="360.45,-249.22 358,-242.22 355.55,-249.22 360.45,-249.22"/>
<text xml:space="preserve" text-anchor="middle" x="381.62" y="-262.45" font-family="Times,serif" font-size="14.00">parent</text>
</g>
<!-- a7 -->
<g id="node8" class="node">
<title>a7</title>
<ellipse fill="none" stroke="black" cx="428" cy="-311.75" rx="18" ry="18"/>
<text xml:space="preserve" text-anchor="middle" x="428" y="-307.07" font-family="Times,serif" font-size="14.00">7</text>
</g>
<!-- a7&#45;&gt;a0 -->
<g id="edge6" class="edge">
<title>a7&#45;&gt;a0</title>
<path fill="none" stroke="black" d="M423.51,-293.99C420,-283.09 414.31,-269 406,-258.5 399.1,-249.78 389.5,-242.2 380.69,-236.34"/>
<polygon fill="black" stroke="black" points="382.07,-234.31 374.84,-232.65 379.45,-238.46 382.07,-234.31"/>
<text xml:space="preserve" text-anchor="middle" x="439.99" y="-262.45" font-family="Times,serif" font-size="14.00">parent</text>
</g>
</g>
</svg>
