<?xml version="1.0" encoding="UTF-8" standalone="no"?>
<!DOCTYPE svg PUBLIC "-//W3C//DTD SVG 1.1//EN"
 "http://www.w3.org/Graphics/SVG/1.1/DTD/svg11.dtd">
<!-- Generated by graphviz version 14.1.3 (20260303.0454)
 -->
<!-- Title: MergeTree Pages: 1 -->
<svg width="165pt" height="109pt"
 viewBox="0.00 0.00 165.00 109.00" xmlns="http://www.w3.org/2000/svg" xmlns:xlink="http://www.w3.org/1999/xlink">
<g id="graph0" class="graph" transform="scale(1 1) rotate(0) translate(4 104.8)">
<title>MergeTree</title>
<polygon fill="white" stroke="none" points="-4,4 -4,-104.8 161.4,-104.8 161.4,4 -4,4"/>
<!-- 6 -->
<g id="node1" class="node">
<title>6</title>
<ellipse fill="#fff7e6" stroke="#d48806" cx="16.2" cy="-84.6" rx="16.2" ry="16.2"/>
<text xml:space="preserve" text-anchor="middle" x="16.2" y="-81.8" font-family="sans-serif" font-size="14.00" fill="#874d00">6 (内部)</text>
</g>
<!-- 3 -->
<g id="node2" class="node">
<title>3</title>
<ellipse fill="#eef5ff" stroke="#2563eb" cx="16.2" cy="-16.2" rx="16.2" ry="16.2"/>
<text xml:space="preserve" text-anchor="middle" x="16.2" y="-11.52" font-family="sans-serif" font-size="14.00" fill="#1e3a8a">3</text>
</g>
<!-- 6&#45;&gt;3 -->
<g id="edge1" class="edge">
<title>6&#45;&gt;3</title>
<path fill="none" stroke="#64748b" stroke-width="1.5" d="M10.52,-69.19C9.56,-61.71 9.25,-52.33 9.58,-43.6"/>
<polygon fill="#64748b" stroke="#64748b" stroke-width="1.5" points="13.05,-44.09 10.35,-33.84 6.07,-43.54 13.05,-44.09"/>
</g>
<!-- 6&#45;&gt;3 -->
<g id="edge2" class="edge">
<title>6&#45;&gt;3</title>
<path fill="none" stroke="#64748b" stroke-width="1.5" d="M21.88,-69.19C22.84,-61.71 23.15,-52.33 22.82,-43.6"/>
<polygon fill="#64748b" stroke="#64748b" stroke-width="1.5" points="26.33,-43.54 22.05,-33.84 19.35,-44.09 26.33,-43.54"/>
</g>
<!-- a -->
<g id="node3" class="node">
<title>a</title>
<ellipse fill="#fff7e6" stroke="#d48806" cx="91.2" cy="-84.6" rx="16.2" ry="16.2"/>
<text xml:space="preserve" text-anchor="middle" x="91.2" y="-81.8" font-family="sans-serif" font-size="14.00" fill="#874d00">3 (内部)</text>
</g>
<!-- 1 -->
<g id="node5" class="node">
<title>1</title>
<ellipse fill="#eef5ff" stroke="#2563eb" cx="78.2" cy="-16.2" rx="16.2" ry="16.2"/>
<text xml:space="preserve" text-anchor="middle" x="78.2" y="-11.52" font-family="sans-serif" font-size="14.00" fill="#1e3a8a">1</text>
</g>
<!-- a&#45;&gt;1 -->
<g id="edge3" class="edge">
<title>a&#45;&gt;1</title>
<path fill="none" stroke="#64748b" stroke-width="1.5" d="M88.18,-68.2C86.81,-61.16 85.13,-52.6 83.55,-44.53"/>
<polygon fill="#64748b" stroke="#64748b" stroke-width="1.5" points="86.99,-43.89 81.64,-34.74 80.12,-45.23 86.99,-43.89"/>
</g>
<!-- 2 -->
<g id="node6" class="node">
<title>2</title>
<ellipse fill="#eef5ff" stroke="#2563eb" cx="128.2" cy="-16.2" rx="16.2" ry="16.2"/>
<text xml:space="preserve" text-anchor="middle" x="128.2" y="-11.52" font-family="sans-serif" font-size="14.00" fill="#1e3a8a">2</text>
</g>
<!-- a&#45;&gt;2 -->
<g id="edge4" class="edge">
<title>a&#45;&gt;2</title>
<path fill="none" stroke="#64748b" stroke-width="1.5" d="M98.87,-69.84C103.43,-61.65 109.35,-51.02 114.68,-41.46"/>
<polygon fill="#64748b" stroke="#64748b" stroke-width="1.5" points="117.63,-43.36 119.44,-32.92 111.51,-39.96 117.63,-43.36"/>
</g>
<!-- b -->
<g id="node4" class="node">
<title>b</title>
<ellipse fill="#eef5ff" stroke="#2563eb" cx="141.2" cy="-84.6" rx="16.2" ry="16.2"/>
<text xml:space="preserve" text-anchor="middle" x="141.2" y="-81.8" font-family="sans-serif" font-size="14.00" fill="#1e3a8a">原始表</text>
</g>
</g>
</svg>
