<?xml version="1.0" encoding="UTF-8" standalone="no"?>
<!DOCTYPE svg PUBLIC "-//W3C//DTD SVG 1.1//EN"
 "http://www.w3.org/Graphics/SVG/1.1/DTD/svg11.dtd">
<!-- Generated by graphviz version 14.1.3 (20260303.0454)
 -->
<!-- Title: BBExpansion Pages: 1 -->
<svg width="645pt" height="675pt"
 viewBox="0.00 0.00 645.00 675.00" xmlns="http://www.w3.org/2000/svg" xmlns:xlink="http://www.w3.org/1999/xlink">
<g id="graph0" class="graph" transform="scale(1 1) rotate(0) translate(4 670.57)">
<title>BBExpansion</title>
<polygon fill="white" stroke="none" points="-4,4 -4,-670.57 641,-670.57 641,4 -4,4"/>
<g id="clust1" class="cluster">
<title>cluster_fifo</title>
<polygon fill="none" stroke="black" points="8,-8 8,-643.37 391,-643.37 391,-8 8,-8"/>
<text xml:space="preserve" text-anchor="middle" x="97.38" y="-627.97" font-family="Times,serif" font-size="12.00">队列式（FIFO）：按出队序号</text>
</g>
<g id="clust2" class="cluster">
<title>cluster_pq</title>
<polygon fill="none" stroke="black" points="399,-8 399,-658.57 629,-658.57 629,-8 399,-8"/>
<text xml:space="preserve" text-anchor="middle" x="485" y="-643.17" font-family="Times,serif" font-size="12.00">优先队列式：界值与出队序号</text>
</g>
<!-- g0 -->
<g id="node1" class="node">
<title>g0</title>
<ellipse fill="none" stroke="black" cx="206" cy="-585.68" rx="23.69" ry="23.69"/>
<text xml:space="preserve" text-anchor="middle" x="206" y="-587.98" font-family="Times,serif" font-size="11.00">∅</text>
<text xml:space="preserve" text-anchor="middle" x="206" y="-575.98" font-family="Times,serif" font-size="11.00">#1</text>
</g>
<!-- gA -->
<g id="node2" class="node">
<title>gA</title>
<ellipse fill="none" stroke="black" cx="157" cy="-457.58" rx="27.4" ry="27.4"/>
<text xml:space="preserve" text-anchor="middle" x="157" y="-462.5" font-family="Times,serif" font-size="11.00">取A</text>
<text xml:space="preserve" text-anchor="middle" x="157" y="-445.25" font-family="Times,serif" font-size="11.00">#2</text>
</g>
<!-- g0&#45;&gt;gA -->
<g id="edge1" class="edge">
<title>g0&#45;&gt;gA</title>
<path fill="none" stroke="black" d="M197.69,-563.29C190.35,-544.41 179.52,-516.52 170.87,-494.27"/>
<polygon fill="black" stroke="black" points="174.13,-493.01 167.25,-484.96 167.61,-495.54 174.13,-493.01"/>
</g>
<!-- gNA -->
<g id="node3" class="node">
<title>gNA</title>
<ellipse fill="none" stroke="black" cx="255" cy="-457.58" rx="33.06" ry="33.06"/>
<text xml:space="preserve" text-anchor="middle" x="255" y="-462.5" font-family="Times,serif" font-size="11.00">不取A</text>
<text xml:space="preserve" text-anchor="middle" x="255" y="-445.25" font-family="Times,serif" font-size="11.00">#3</text>
</g>
<!-- g0&#45;&gt;gNA -->
<g id="edge2" class="edge">
<title>g0&#45;&gt;gNA</title>
<path fill="none" stroke="black" d="M214.31,-563.29C221.1,-545.81 230.89,-520.62 239.17,-499.32"/>
<polygon fill="black" stroke="black" points="242.43,-500.6 242.79,-490.01 235.9,-498.06 242.43,-500.6"/>
</g>
<!-- gAB -->
<g id="node4" class="node">
<title>gAB</title>
<ellipse fill="none" stroke="black" cx="58" cy="-316.22" rx="41.54" ry="41.54"/>
<text xml:space="preserve" text-anchor="middle" x="58" y="-321.14" font-family="Times,serif" font-size="11.00">取A 取B</text>
<text xml:space="preserve" text-anchor="middle" x="58" y="-303.89" font-family="Times,serif" font-size="11.00">#4</text>
</g>
<!-- gA&#45;&gt;gAB -->
<g id="edge3" class="edge">
<title>gA&#45;&gt;gAB</title>
<path fill="none" stroke="black" d="M141.53,-434.8C127.35,-414.85 105.96,-384.73 88.37,-359.97"/>
<polygon fill="black" stroke="black" points="91.36,-358.14 82.72,-352.01 85.65,-362.19 91.36,-358.14"/>
</g>
<!-- gANB -->
<g id="node5" class="node">
<title>gANB</title>
<ellipse fill="none" stroke="black" cx="157" cy="-316.22" rx="39.95" ry="39.95"/>
<text xml:space="preserve" text-anchor="middle" x="157" y="-323.02" font-family="Times,serif" font-size="11.00">取A ¬B</text>
<text xml:space="preserve" text-anchor="middle" x="157" y="-305.77" font-family="Times,serif" font-size="11.00">#5 弃</text>
</g>
<!-- gA&#45;&gt;gANB -->
<g id="edge4" class="edge">
<title>gA&#45;&gt;gANB</title>
<path fill="none" stroke="black" d="M157,-429.71C157,-412.22 157,-388.87 157,-367.97"/>
<polygon fill="black" stroke="black" points="160.5,-368.18 157,-358.18 153.5,-368.18 160.5,-368.18"/>
</g>
<!-- gNAB -->
<g id="node6" class="node">
<title>gNAB</title>
<ellipse fill="none" stroke="black" cx="255" cy="-316.22" rx="39.95" ry="39.95"/>
<text xml:space="preserve" text-anchor="middle" x="255" y="-323.02" font-family="Times,serif" font-size="11.00">¬A 取B</text>
<text xml:space="preserve" text-anchor="middle" x="255" y="-305.77" font-family="Times,serif" font-size="11.00">#6 弃</text>
</g>
<!-- gNA&#45;&gt;gNAB -->
<g id="edge5" class="edge">
<title>gNA&#45;&gt;gNAB</title>
<path fill="none" stroke="black" d="M255,-424.26C255,-407.54 255,-386.76 255,-367.96"/>
<polygon fill="black" stroke="black" points="258.5,-368.08 255,-358.08 251.5,-368.08 258.5,-368.08"/>
</g>
<!-- gNANB -->
<g id="node7" class="node">
<title>gNANB</title>
<ellipse fill="none" stroke="black" cx="348" cy="-316.22" rx="35.18" ry="35.18"/>
<text xml:space="preserve" text-anchor="middle" x="348" y="-321.14" font-family="Times,serif" font-size="11.00">×</text>
<text xml:space="preserve" text-anchor="middle" x="348" y="-307.64" font-family="Times,serif" font-size="11.00">界9≤9</text>
</g>
<!-- gNA&#45;&gt;gNANB -->
<g id="edge6" class="edge">
<title>gNA&#45;&gt;gNANB</title>
<path fill="none" stroke="black" stroke-dasharray="5,2" d="M273.15,-429.38C287.28,-408.21 307.04,-378.59 322.71,-355.11"/>
<polygon fill="black" stroke="black" points="325.45,-357.31 328.09,-347.05 319.63,-353.42 325.45,-357.31"/>
</g>
<!-- gABC -->
<g id="node8" class="node">
<title>gABC</title>
<ellipse fill="none" stroke="black" cx="50" cy="-167.44" rx="27.4" ry="27.4"/>
<text xml:space="preserve" text-anchor="middle" x="50" y="-172.36" font-family="Times,serif" font-size="11.00">×</text>
<text xml:space="preserve" text-anchor="middle" x="50" y="-158.86" font-family="Times,serif" font-size="11.00">超重</text>
</g>
<!-- gAB&#45;&gt;gABC -->
<g id="edge7" class="edge">
<title>gAB&#45;&gt;gABC</title>
<path fill="none" stroke="black" stroke-dasharray="5,2" d="M55.77,-274.33C54.61,-253.1 53.21,-227.32 52.08,-206.52"/>
<polygon fill="black" stroke="black" points="55.58,-206.53 51.54,-196.73 48.59,-206.91 55.58,-206.53"/>
</g>
<!-- gANBC -->
<g id="node9" class="node">
<title>gANBC</title>
<ellipse fill="none" stroke="black" cx="150" cy="-167.44" rx="54.8" ry="54.8"/>
<text xml:space="preserve" text-anchor="middle" x="150" y="-172.36" font-family="Times,serif" font-size="11.00">取A ¬B ¬C</text>
<text xml:space="preserve" text-anchor="middle" x="150" y="-155.11" font-family="Times,serif" font-size="11.00">#7</text>
</g>
<!-- gAB&#45;&gt;gANBC -->
<g id="edge8" class="edge">
<title>gAB&#45;&gt;gANBC</title>
<path fill="none" stroke="black" d="M79.8,-280.43C90.35,-263.61 103.26,-243.01 115.12,-224.08"/>
<polygon fill="black" stroke="black" points="118.06,-225.98 120.41,-215.65 112.13,-222.26 118.06,-225.98"/>
</g>
<!-- gABCD -->
<g id="node10" class="node">
<title>gABCD</title>
<ellipse fill="none" stroke="black" cx="114" cy="-43.4" rx="27.4" ry="27.4"/>
<text xml:space="preserve" text-anchor="middle" x="114" y="-48.33" font-family="Times,serif" font-size="11.00">×</text>
<text xml:space="preserve" text-anchor="middle" x="114" y="-34.83" font-family="Times,serif" font-size="11.00">超重</text>
</g>
<!-- gANBC&#45;&gt;gABCD -->
<g id="edge9" class="edge">
<title>gANBC&#45;&gt;gABCD</title>
<path fill="none" stroke="black" stroke-dasharray="5,2" d="M134.63,-114.33C131.32,-103.1 127.88,-91.46 124.79,-80.98"/>
<polygon fill="black" stroke="black" points="128.2,-80.18 122.02,-71.58 121.49,-82.16 128.2,-80.18"/>
</g>
<!-- gL -->
<g id="node11" class="node">
<title>gL</title>
<polygon fill="none" stroke="black" points="213,-61.4 159,-61.4 159,-25.4 213,-25.4 213,-61.4"/>
<text xml:space="preserve" text-anchor="middle" x="186" y="-39.7" font-family="Times,serif" font-size="11.00">17</text>
</g>
<!-- gANBC&#45;&gt;gL -->
<g id="edge10" class="edge">
<title>gANBC&#45;&gt;gL</title>
<path fill="none" stroke="black" d="M165.37,-114.33C169.57,-100.09 173.97,-85.19 177.62,-72.82"/>
<polygon fill="black" stroke="black" points="180.95,-73.88 180.43,-63.3 174.24,-71.9 180.95,-73.88"/>
</g>
<!-- h0 -->
<g id="node12" class="node">
<title>h0</title>
<ellipse fill="none" stroke="black" cx="510" cy="-585.68" rx="38.89" ry="38.89"/>
<text xml:space="preserve" text-anchor="middle" x="510" y="-590.6" font-family="Times,serif" font-size="11.00">∅ 界20</text>
<text xml:space="preserve" text-anchor="middle" x="510" y="-573.35" font-family="Times,serif" font-size="11.00">#1</text>
</g>
<!-- hA -->
<g id="node13" class="node">
<title>hA</title>
<ellipse fill="none" stroke="black" cx="452" cy="-457.58" rx="45.25" ry="45.25"/>
<text xml:space="preserve" text-anchor="middle" x="452" y="-462.5" font-family="Times,serif" font-size="11.00">取A 界20</text>
<text xml:space="preserve" text-anchor="middle" x="452" y="-445.25" font-family="Times,serif" font-size="11.00">#2</text>
</g>
<!-- h0&#45;&gt;hA -->
<g id="edge11" class="edge">
<title>h0&#45;&gt;hA</title>
<path fill="none" stroke="black" d="M494,-549.89C488.23,-537.34 481.59,-522.91 475.32,-509.28"/>
<polygon fill="black" stroke="black" points="478.61,-508.05 471.25,-500.43 472.25,-510.98 478.61,-508.05"/>
</g>
<!-- hNA -->
<g id="node14" class="node">
<title>hNA</title>
<ellipse fill="none" stroke="black" cx="568" cy="-457.58" rx="53.21" ry="53.21"/>
<text xml:space="preserve" text-anchor="middle" x="568" y="-464.38" font-family="Times,serif" font-size="11.00">不取A 界14</text>
<text xml:space="preserve" text-anchor="middle" x="568" y="-447.13" font-family="Times,serif" font-size="11.00">未出队</text>
</g>
<!-- h0&#45;&gt;hNA -->
<g id="edge12" class="edge">
<title>h0&#45;&gt;hNA</title>
<path fill="none" stroke="black" d="M526,-549.89C530.73,-539.62 536.03,-528.09 541.24,-516.77"/>
<polygon fill="black" stroke="black" points="544.34,-518.39 545.34,-507.85 537.98,-515.47 544.34,-518.39"/>
</g>
<!-- hAB -->
<g id="node15" class="node">
<title>hAB</title>
<ellipse fill="none" stroke="black" cx="453" cy="-316.22" rx="45.79" ry="45.79"/>
<text xml:space="preserve" text-anchor="middle" x="453" y="-321.14" font-family="Times,serif" font-size="11.00">A B 界20</text>
<text xml:space="preserve" text-anchor="middle" x="453" y="-303.89" font-family="Times,serif" font-size="11.00">#3</text>
</g>
<!-- hA&#45;&gt;hAB -->
<g id="edge13" class="edge">
<title>hA&#45;&gt;hAB</title>
<path fill="none" stroke="black" d="M452.32,-412.1C452.41,-399.9 452.5,-386.51 452.59,-373.74"/>
<polygon fill="black" stroke="black" points="456.09,-373.77 452.67,-363.74 449.09,-373.72 456.09,-373.77"/>
</g>
<!-- hANB -->
<g id="node16" class="node">
<title>hANB</title>
<ellipse fill="none" stroke="black" cx="569" cy="-316.22" rx="52.15" ry="52.15"/>
<text xml:space="preserve" text-anchor="middle" x="569" y="-323.02" font-family="Times,serif" font-size="11.00">A ¬B 界16</text>
<text xml:space="preserve" text-anchor="middle" x="569" y="-305.77" font-family="Times,serif" font-size="11.00">判弃</text>
</g>
<!-- hA&#45;&gt;hANB -->
<g id="edge14" class="edge">
<title>hA&#45;&gt;hANB</title>
<path fill="none" stroke="black" d="M480.92,-422.13C495.23,-405.08 512.75,-384.22 528.38,-365.6"/>
<polygon fill="black" stroke="black" points="530.93,-368.01 534.68,-358.1 525.57,-363.51 530.93,-368.01"/>
</g>
<!-- hABC -->
<g id="node17" class="node">
<title>hABC</title>
<ellipse fill="none" stroke="black" cx="443" cy="-167.44" rx="27.4" ry="27.4"/>
<text xml:space="preserve" text-anchor="middle" x="443" y="-172.36" font-family="Times,serif" font-size="11.00">×</text>
<text xml:space="preserve" text-anchor="middle" x="443" y="-158.86" font-family="Times,serif" font-size="11.00">超重</text>
</g>
<!-- hAB&#45;&gt;hABC -->
<g id="edge15" class="edge">
<title>hAB&#45;&gt;hABC</title>
<path fill="none" stroke="black" stroke-dasharray="5,2" d="M449.95,-270.38C448.55,-249.9 446.91,-225.9 445.58,-206.33"/>
<polygon fill="black" stroke="black" points="449.09,-206.34 444.92,-196.6 442.11,-206.82 449.09,-206.34"/>
</g>
<!-- hANBC -->
<g id="node18" class="node">
<title>hANBC</title>
<ellipse fill="none" stroke="black" cx="549" cy="-167.44" rx="60.63" ry="60.63"/>
<text xml:space="preserve" text-anchor="middle" x="549" y="-172.36" font-family="Times,serif" font-size="11.00">A B ¬C 界20</text>
<text xml:space="preserve" text-anchor="middle" x="549" y="-155.11" font-family="Times,serif" font-size="11.00">#4</text>
</g>
<!-- hAB&#45;&gt;hANBC -->
<g id="edge16" class="edge">
<title>hAB&#45;&gt;hANBC</title>
<path fill="none" stroke="black" d="M477.72,-277.42C487.47,-262.51 498.92,-245.01 509.75,-228.45"/>
<polygon fill="black" stroke="black" points="512.66,-230.39 515.21,-220.1 506.8,-226.56 512.66,-230.39"/>
</g>
<!-- hABCD -->
<g id="node19" class="node">
<title>hABCD</title>
<ellipse fill="none" stroke="black" cx="499" cy="-43.4" rx="27.4" ry="27.4"/>
<text xml:space="preserve" text-anchor="middle" x="499" y="-48.33" font-family="Times,serif" font-size="11.00">×</text>
<text xml:space="preserve" text-anchor="middle" x="499" y="-34.83" font-family="Times,serif" font-size="11.00">超重</text>
</g>
<!-- hANBC&#45;&gt;hABCD -->
<g id="edge17" class="edge">
<title>hANBC&#45;&gt;hABCD</title>
<path fill="none" stroke="black" stroke-dasharray="5,2" d="M526.19,-110.77C521.85,-100.18 517.42,-89.36 513.43,-79.63"/>
<polygon fill="black" stroke="black" points="516.75,-78.48 509.72,-70.56 510.27,-81.14 516.75,-78.48"/>
</g>
<!-- hL -->
<g id="node20" class="node">
<title>hL</title>
<polygon fill="none" stroke="black" points="598,-61.4 544,-61.4 544,-25.4 598,-25.4 598,-61.4"/>
<text xml:space="preserve" text-anchor="middle" x="571" y="-39.7" font-family="Times,serif" font-size="11.00">17</text>
</g>
<!-- hANBC&#45;&gt;hL -->
<g id="edge18" class="edge">
<title>hANBC&#45;&gt;hL</title>
<path fill="none" stroke="black" d="M559.61,-107.56C561.78,-95.56 563.96,-83.44 565.83,-73.08"/>
<polygon fill="black" stroke="black" points="569.26,-73.78 567.59,-63.32 562.37,-72.54 569.26,-73.78"/>
</g>
</g>
</svg>
