<?xml version="1.0" encoding="UTF-8" standalone="no"?>
<!DOCTYPE svg PUBLIC "-//W3C//DTD SVG 1.1//EN"
 "http://www.w3.org/Graphics/SVG/1.1/DTD/svg11.dtd">
<!-- Generated by graphviz version 14.1.3 (20260303.0454)
 -->
<!-- Title: LcaSearchAndReturn Pages: 1 -->
<svg width="201pt" height="407pt"
 viewBox="0.00 0.00 201.00 407.00" xmlns="http://www.w3.org/2000/svg" xmlns:xlink="http://www.w3.org/1999/xlink">
<g id="graph0" class="graph" transform="scale(1 1) rotate(0) translate(4 403.2)">
<title>LcaSearchAndReturn</title>
<polygon fill="#ffffff" stroke="none" points="-4,4 -4,-403.2 197.41,-403.2 197.41,4 -4,4"/>
<!-- root -->
<g id="node1" class="node">
<title>root</title>
<ellipse fill="none" stroke="black" cx="97.05" cy="-381.2" rx="18" ry="18"/>
<text xml:space="preserve" text-anchor="middle" x="97.05" y="-376.53" font-family="Times,serif" font-size="14.00">3</text>
</g>
<!-- split -->
<g id="node2" class="node">
<title>split</title>
<ellipse fill="none" stroke="black" cx="62.05" cy="-270.2" rx="32" ry="32"/>
<ellipse fill="none" stroke="black" cx="62.05" cy="-270.2" rx="36" ry="36"/>
<text xml:space="preserve" text-anchor="middle" x="62.05" y="-274.15" font-family="Times,serif" font-size="14.00">5</text>
<text xml:space="preserve" text-anchor="middle" x="62.05" y="-256.9" font-family="Times,serif" font-size="14.00">LCA</text>
</g>
<!-- root&#45;&gt;split -->
<g id="edge1" class="edge">
<title>root&#45;&gt;split</title>
<path fill="none" stroke="black" d="M91.74,-363.65C87.63,-350.85 81.74,-332.5 76.28,-315.53"/>
<polygon fill="black" stroke="black" points="79.64,-314.53 73.25,-306.08 72.98,-316.67 79.64,-314.53"/>
</g>
<!-- other -->
<g id="node3" class="node">
<title>other</title>
<ellipse fill="none" stroke="black" cx="134.05" cy="-270.2" rx="18" ry="18"/>
<text xml:space="preserve" text-anchor="middle" x="134.05" y="-265.53" font-family="Times,serif" font-size="14.00">1</text>
</g>
<!-- root&#45;&gt;other -->
<g id="edge2" class="edge">
<title>root&#45;&gt;other</title>
<path fill="none" stroke="black" d="M102.67,-363.65C108.55,-346.34 117.86,-318.9 124.82,-298.41"/>
<polygon fill="black" stroke="black" points="128.11,-299.59 128.01,-288.99 121.49,-297.34 128.11,-299.59"/>
</g>
<!-- split&#45;&gt;root -->
<g id="edge9" class="edge">
<title>split&#45;&gt;root</title>
<path fill="none" stroke="black" stroke-dasharray="5,2" d="M84.61,-298.82C89.7,-306.58 94.39,-315.33 97.05,-324.2 99.65,-332.84 100.36,-342.58 100.22,-351.48"/>
<polygon fill="black" stroke="black" points="96.73,-351.23 99.67,-361.41 103.71,-351.62 96.73,-351.23"/>
<text xml:space="preserve" text-anchor="middle" x="121.11" y="-331.9" font-family="Times,serif" font-size="14.00">返回 5</text>
</g>
<!-- p -->
<g id="node4" class="node">
<title>p</title>
<ellipse fill="none" stroke="black" cx="30.05" cy="-147.16" rx="30.05" ry="30.05"/>
<text xml:space="preserve" text-anchor="middle" x="30.05" y="-151.11" font-family="Times,serif" font-size="14.00">6</text>
<text xml:space="preserve" text-anchor="middle" x="30.05" y="-133.86" font-family="Times,serif" font-size="14.00">p</text>
</g>
<!-- split&#45;&gt;p -->
<g id="edge3" class="edge">
<title>split&#45;&gt;p</title>
<path fill="none" stroke="black" d="M53.05,-235.16C49.13,-220.31 44.5,-202.8 40.43,-187.4"/>
<polygon fill="black" stroke="black" points="43.91,-186.86 37.97,-178.09 37.14,-188.65 43.91,-186.86"/>
</g>
<!-- middle -->
<g id="node5" class="node">
<title>middle</title>
<ellipse fill="none" stroke="black" cx="96.05" cy="-147.16" rx="18" ry="18"/>
<text xml:space="preserve" text-anchor="middle" x="96.05" y="-142.48" font-family="Times,serif" font-size="14.00">2</text>
</g>
<!-- split&#45;&gt;middle -->
<g id="edge4" class="edge">
<title>split&#45;&gt;middle</title>
<path fill="none" stroke="black" d="M71.61,-235.16C76.87,-216.44 83.32,-193.5 88.27,-175.88"/>
<polygon fill="black" stroke="black" points="91.6,-176.94 90.94,-166.36 84.86,-175.04 91.6,-176.94"/>
</g>
<!-- other&#45;&gt;root -->
<g id="edge10" class="edge">
<title>other&#45;&gt;root</title>
<path fill="none" stroke="black" stroke-dasharray="5,2" d="M141.87,-286.81C148.51,-302.41 155.58,-326.69 146.05,-345.2 141.12,-354.79 132.2,-362.34 123.31,-367.93"/>
<polygon fill="black" stroke="black" points="121.85,-364.74 114.83,-372.67 125.26,-370.85 121.85,-364.74"/>
<text xml:space="preserve" text-anchor="middle" x="172.03" y="-331.9" font-family="Times,serif" font-size="14.00">返回空</text>
</g>
<!-- p&#45;&gt;split -->
<g id="edge6" class="edge">
<title>p&#45;&gt;split</title>
<path fill="none" stroke="black" stroke-dasharray="5,2" d="M48.31,-171.33C53.03,-178.58 57.5,-186.87 60.05,-195.21 62.7,-203.85 64.04,-213.32 64.6,-222.52"/>
<polygon fill="black" stroke="black" points="61.1,-222.54 64.88,-232.44 68.1,-222.34 61.1,-222.54"/>
<text xml:space="preserve" text-anchor="middle" x="84.96" y="-202.91" font-family="Times,serif" font-size="14.00">返回 6</text>
</g>
<!-- middle&#45;&gt;split -->
<g id="edge8" class="edge">
<title>middle&#45;&gt;split</title>
<path fill="none" stroke="black" stroke-dasharray="5,2" d="M104.13,-163.7C110.31,-177.77 116.73,-198.88 110.05,-216.21 107.07,-223.93 102.39,-231.23 97.09,-237.8"/>
<polygon fill="black" stroke="black" points="94.6,-235.33 90.59,-245.14 99.84,-239.97 94.6,-235.33"/>
<text xml:space="preserve" text-anchor="middle" x="133.89" y="-202.91" font-family="Times,serif" font-size="14.00">返回 4</text>
</g>
<!-- q -->
<g id="node6" class="node">
<title>q</title>
<ellipse fill="none" stroke="black" cx="96.05" cy="-30.05" rx="30.05" ry="30.05"/>
<text xml:space="preserve" text-anchor="middle" x="96.05" y="-34" font-family="Times,serif" font-size="14.00">4</text>
<text xml:space="preserve" text-anchor="middle" x="96.05" y="-16.75" font-family="Times,serif" font-size="14.00">q</text>
</g>
<!-- middle&#45;&gt;q -->
<g id="edge5" class="edge">
<title>middle&#45;&gt;q</title>
<path fill="none" stroke="black" d="M96.05,-128.67C96.05,-113.6 96.05,-91.26 96.05,-71.75"/>
<polygon fill="black" stroke="black" points="99.55,-71.87 96.05,-61.87 92.55,-71.87 99.55,-71.87"/>
<text xml:space="preserve" text-anchor="middle" x="117.43" y="-85.8" font-family="Times,serif" font-size="14.00">右孩子</text>
</g>
<!-- q&#45;&gt;middle -->
<g id="edge7" class="edge">
<title>q&#45;&gt;middle</title>
<path fill="none" stroke="black" stroke-dasharray="5,2" d="M119.19,-49.23C127.41,-57.11 135.7,-67.08 140.05,-78.1 147.32,-96.53 133.29,-115.27 119.19,-128.41"/>
<polygon fill="black" stroke="black" points="117.03,-125.64 111.73,-134.82 121.6,-130.95 117.03,-125.64"/>
<text xml:space="preserve" text-anchor="middle" x="163.03" y="-85.8" font-family="Times,serif" font-size="14.00">返回 4</text>
</g>
</g>
</svg>
