<?xml version="1.0" encoding="UTF-8" standalone="no"?>
<!DOCTYPE svg PUBLIC "-//W3C//DTD SVG 1.1//EN"
 "http://www.w3.org/Graphics/SVG/1.1/DTD/svg11.dtd">
<!-- Generated by graphviz version 14.1.3 (20260303.0454)
 -->
<!-- Title: FoundationExample Pages: 1 -->
<svg width="260pt" height="98pt"
 viewBox="0.00 0.00 260.00 98.00" xmlns="http://www.w3.org/2000/svg" xmlns:xlink="http://www.w3.org/1999/xlink">
<g id="graph0" class="graph" transform="scale(1 1) rotate(0) translate(4 94)">
<title>FoundationExample</title>
<polygon fill="white" stroke="none" points="-4,4 -4,-94 256,-94 256,4 -4,4"/>
<!-- 0 -->
<g id="node1" class="node">
<title>0</title>
<ellipse fill="none" stroke="black" cx="18" cy="-49" rx="18" ry="18"/>
<text xml:space="preserve" text-anchor="middle" x="18" y="-44.33" font-family="Times,serif" font-size="14.00">0</text>
</g>
<!-- 1 -->
<g id="node2" class="node">
<title>1</title>
<ellipse fill="none" stroke="black" cx="90" cy="-26" rx="18" ry="18"/>
<text xml:space="preserve" text-anchor="middle" x="90" y="-21.32" font-family="Times,serif" font-size="14.00">1</text>
</g>
<!-- 0&#45;&#45;1 -->
<g id="edge1" class="edge">
<title>0&#45;&#45;1</title>
<path fill="none" stroke="black" d="M35.59,-43.55C46.75,-39.88 61.4,-35.07 72.53,-31.41"/>
</g>
<!-- 2 -->
<g id="node3" class="node">
<title>2</title>
<ellipse fill="none" stroke="black" cx="162" cy="-72" rx="18" ry="18"/>
<text xml:space="preserve" text-anchor="middle" x="162" y="-67.33" font-family="Times,serif" font-size="14.00">2</text>
</g>
<!-- 0&#45;&#45;2 -->
<g id="edge2" class="edge">
<title>0&#45;&#45;2</title>
<path fill="none" stroke="black" d="M36.13,-51.77C63.42,-56.2 116.48,-64.79 143.81,-69.22"/>
</g>
<!-- 1&#45;&#45;2 -->
<g id="edge3" class="edge">
<title>1&#45;&#45;2</title>
<path fill="none" stroke="black" d="M105.5,-35.53C117.52,-43.43 134.51,-54.59 146.51,-62.48"/>
</g>
<!-- 3 -->
<g id="node4" class="node">
<title>3</title>
<ellipse fill="none" stroke="black" cx="162" cy="-18" rx="18" ry="18"/>
<text xml:space="preserve" text-anchor="middle" x="162" y="-13.32" font-family="Times,serif" font-size="14.00">3</text>
</g>
<!-- 1&#45;&#45;3 -->
<g id="edge4" class="edge">
<title>1&#45;&#45;3</title>
<path fill="none" stroke="black" d="M108.3,-24.02C119.15,-22.78 133.08,-21.19 143.9,-19.95"/>
</g>
<!-- 4 -->
<g id="node5" class="node">
<title>4</title>
<ellipse fill="none" stroke="black" cx="234" cy="-45" rx="18" ry="18"/>
<text xml:space="preserve" text-anchor="middle" x="234" y="-40.33" font-family="Times,serif" font-size="14.00">4</text>
</g>
<!-- 2&#45;&#45;4 -->
<g id="edge5" class="edge">
<title>2&#45;&#45;4</title>
<path fill="none" stroke="black" d="M179.24,-65.74C190.54,-61.38 205.56,-55.58 216.85,-51.23"/>
</g>
<!-- 3&#45;&#45;4 -->
<g id="edge6" class="edge">
<title>3&#45;&#45;4</title>
<path fill="none" stroke="black" d="M179.24,-24.26C190.54,-28.62 205.56,-34.42 216.85,-38.77"/>
</g>
</g>
</svg>
